<?xml version="1.0" encoding="utf-8" standalone="no"?>
<!DOCTYPE svg PUBLIC "-//W3C//DTD SVG 1.1//EN"
  "http://www.w3.org/Graphics/SVG/1.1/DTD/svg11.dtd">
<svg xmlns:xlink="http://www.w3.org/1999/xlink" width="449.089297pt" height="192.823625pt" viewBox="0 0 449.089297 192.823625" xmlns="http://www.w3.org/2000/svg" version="1.1">
 <metadata>
  <rdf:RDF xmlns:dc="http://purl.org/dc/elements/1.1/" xmlns:cc="http://creativecommons.org/ns#" xmlns:rdf="http://www.w3.org/1999/02/22-rdf-syntax-ns#">
   <cc:Work>
    <dc:type rdf:resource="http://purl.org/dc/dcmitype/StillImage"/>
    <dc:date>2026-07-18T14:36:02.932636</dc:date>
    <dc:format>image/svg+xml</dc:format>
    <dc:creator>
     <cc:Agent>
      <dc:title>Matplotlib v3.10.8, https://matplotlib.org/</dc:title>
     </cc:Agent>
    </dc:creator>
   </cc:Work>
  </rdf:RDF>
 </metadata>
 <defs>
  <style type="text/css">*{stroke-linejoin: round; stroke-linecap: butt}</style>
 </defs>
 <g id="figure_1">
  <g id="patch_1">
   <path d="M 0 192.823625 
L 449.089297 192.823625 
L 449.089297 0 
L 0 0 
z
" style="fill: #ffffff"/>
  </g>
  <g id="axes_1">
   <g id="patch_2">
    <path d="M 42.379297 162.243 
L 216.754297 162.243 
L 216.754297 9.783 
L 42.379297 9.783 
z
" style="fill: #ffffff"/>
   </g>
   <g id="FillBetweenPolyCollection_1">
    <defs>
     <path id="m2675a8c6c7" d="M 50.305433 -118.234078 
L 50.305433 -72.235086 
L 129.566797 -73.038272 
L 208.828161 -89.431444 
L 208.828161 -104.276015 
L 208.828161 -104.276015 
L 129.566797 -101.023925 
L 50.305433 -118.234078 
z
"/>
    </defs>
    <g clip-path="url(#p182eb0920b)">
     <use xlink:href="#m2675a8c6c7" x="0" y="192.823625" style="fill: #d55e00; fill-opacity: 0.1"/>
    </g>
   </g>
   <g id="FillBetweenPolyCollection_2">
    <defs>
     <path id="m8391520c70" d="M 50.305433 -123.334924 
L 50.305433 -73.989082 
L 129.566797 -88.912613 
L 208.828161 -91.655446 
L 208.828161 -106.464181 
L 208.828161 -106.464181 
L 129.566797 -107.450187 
L 50.305433 -123.334924 
z
"/>
    </defs>
    <g clip-path="url(#p182eb0920b)">
     <use xlink:href="#m8391520c70" x="0" y="192.823625" style="fill: #0072b2; fill-opacity: 0.1"/>
    </g>
   </g>
   <g id="FillBetweenPolyCollection_3">
    <defs>
     <path id="me27775430a" d="M 50.305433 -110.129482 
L 50.305433 -37.510625 
L 129.566797 -79.019509 
L 208.828161 -87.128476 
L 208.828161 -103.314087 
L 208.828161 -103.314087 
L 129.566797 -109.088999 
L 50.305433 -110.129482 
z
"/>
    </defs>
    <g clip-path="url(#p182eb0920b)">
     <use xlink:href="#me27775430a" x="0" y="192.823625" style="fill-opacity: 0.1"/>
    </g>
   </g>
   <g id="FillBetweenPolyCollection_4">
    <defs>
     <path id="m9daee74f13" d="M 50.305433 -112.054502 
L 50.305433 -73.542265 
L 129.566797 -93.188175 
L 208.828161 -108.228241 
L 208.828161 -176.110625 
L 208.828161 -176.110625 
L 129.566797 -125.558066 
L 50.305433 -112.054502 
z
"/>
    </defs>
    <g clip-path="url(#p182eb0920b)">
     <use xlink:href="#m9daee74f13" x="0" y="192.823625" style="fill: #8a8a8a; fill-opacity: 0.1"/>
    </g>
   </g>
   <g id="matplotlib.axis_1">
    <g id="xtick_1">
     <g id="line2d_1">
      <path d="M 50.305433 162.243 
L 50.305433 9.783 
" clip-path="url(#p182eb0920b)" style="fill: none; stroke: #b0b0b0; stroke-opacity: 0.25; stroke-width: 0.5; stroke-linecap: square"/>
     </g>
     <g id="line2d_2">
      <defs>
       <path id="m1c26169ca1" d="M 0 0 
L 0 3.5 
" style="stroke: #000000; stroke-width: 0.8"/>
      </defs>
      <g>
       <use xlink:href="#m1c26169ca1" x="50.305433" y="162.243" style="stroke: #000000; stroke-width: 0.8"/>
      </g>
     </g>
     <g id="text_1">
      <!-- 1 -->
      <g transform="translate(47.601371 175.701672) scale(0.085 -0.085)">
       <defs>
        <path id="DejaVuSerif-31" d="M 909 0 
L 909 331 
L 1722 331 
L 1722 4213 
L 781 3603 
L 781 4013 
L 1919 4750 
L 2350 4750 
L 2350 331 
L 3163 331 
L 3163 0 
L 909 0 
z
" transform="scale(0.015625)"/>
       </defs>
       <use xlink:href="#DejaVuSerif-31"/>
      </g>
     </g>
    </g>
    <g id="xtick_2">
     <g id="line2d_3">
      <path d="M 129.566797 162.243 
L 129.566797 9.783 
" clip-path="url(#p182eb0920b)" style="fill: none; stroke: #b0b0b0; stroke-opacity: 0.25; stroke-width: 0.5; stroke-linecap: square"/>
     </g>
     <g id="line2d_4">
      <g>
       <use xlink:href="#m1c26169ca1" x="129.566797" y="162.243" style="stroke: #000000; stroke-width: 0.8"/>
      </g>
     </g>
     <g id="text_2">
      <!-- 3 -->
      <g transform="translate(126.862734 175.701672) scale(0.085 -0.085)">
       <defs>
        <path id="DejaVuSerif-33" d="M 622 4469 
Q 988 4606 1323 4678 
Q 1659 4750 1953 4750 
Q 2638 4750 3022 4454 
Q 3406 4159 3406 3634 
Q 3406 3213 3140 2930 
Q 2875 2647 2388 2547 
Q 2963 2466 3280 2130 
Q 3597 1794 3597 1259 
Q 3597 606 3158 257 
Q 2719 -91 1894 -91 
Q 1528 -91 1179 -12 
Q 831 66 488 225 
L 488 1131 
L 838 1131 
Q 869 681 1141 450 
Q 1413 219 1906 219 
Q 2384 219 2661 495 
Q 2938 772 2938 1253 
Q 2938 1803 2653 2086 
Q 2369 2369 1819 2369 
L 1522 2369 
L 1522 2688 
L 1678 2688 
Q 2225 2688 2498 2914 
Q 2772 3141 2772 3597 
Q 2772 4006 2547 4223 
Q 2322 4441 1900 4441 
Q 1478 4441 1245 4241 
Q 1013 4041 972 3647 
L 622 3647 
L 622 4469 
z
" transform="scale(0.015625)"/>
       </defs>
       <use xlink:href="#DejaVuSerif-33"/>
      </g>
     </g>
    </g>
    <g id="xtick_3">
     <g id="line2d_5">
      <path d="M 208.828161 162.243 
L 208.828161 9.783 
" clip-path="url(#p182eb0920b)" style="fill: none; stroke: #b0b0b0; stroke-opacity: 0.25; stroke-width: 0.5; stroke-linecap: square"/>
     </g>
     <g id="line2d_6">
      <g>
       <use xlink:href="#m1c26169ca1" x="208.828161" y="162.243" style="stroke: #000000; stroke-width: 0.8"/>
      </g>
     </g>
     <g id="text_3">
      <!-- 5 -->
      <g transform="translate(206.124098 175.701672) scale(0.085 -0.085)">
       <defs>
        <path id="DejaVuSerif-35" d="M 3219 4666 
L 3219 4153 
L 1081 4153 
L 1081 2816 
Q 1244 2928 1461 2984 
Q 1678 3041 1947 3041 
Q 2703 3041 3140 2622 
Q 3578 2203 3578 1478 
Q 3578 738 3136 323 
Q 2694 -91 1894 -91 
Q 1572 -91 1234 -12 
Q 897 66 544 225 
L 544 1131 
L 897 1131 
Q 925 688 1179 453 
Q 1434 219 1894 219 
Q 2388 219 2653 544 
Q 2919 869 2919 1478 
Q 2919 2084 2655 2407 
Q 2391 2731 1894 2731 
Q 1613 2731 1398 2631 
Q 1184 2531 1019 2322 
L 750 2322 
L 750 4666 
L 3219 4666 
z
" transform="scale(0.015625)"/>
       </defs>
       <use xlink:href="#DejaVuSerif-35"/>
      </g>
     </g>
    </g>
    <g id="text_4">
     <!-- Number of related tasks -->
     <g transform="translate(70.889453 188.687922) scale(0.095 -0.095)">
      <defs>
       <path id="DejaVuSerif-4e" d="M 313 0 
L 313 331 
L 941 331 
L 941 4331 
L 313 4331 
L 313 4666 
L 1509 4666 
L 4306 984 
L 4306 4331 
L 3681 4331 
L 3681 4666 
L 5319 4666 
L 5319 4331 
L 4691 4331 
L 4691 -91 
L 4313 -91 
L 1325 3841 
L 1325 331 
L 1953 331 
L 1953 0 
L 313 0 
z
" transform="scale(0.015625)"/>
       <path id="DejaVuSerif-75" d="M 2266 3322 
L 3341 3322 
L 3341 331 
L 3884 331 
L 3884 0 
L 2766 0 
L 2766 588 
Q 2606 256 2353 82 
Q 2100 -91 1766 -91 
Q 1213 -91 952 223 
Q 691 538 691 1209 
L 691 2988 
L 172 2988 
L 172 3322 
L 1269 3322 
L 1269 1388 
Q 1269 781 1417 556 
Q 1566 331 1947 331 
Q 2347 331 2556 625 
Q 2766 919 2766 1478 
L 2766 2988 
L 2266 2988 
L 2266 3322 
z
" transform="scale(0.015625)"/>
       <path id="DejaVuSerif-6d" d="M 3316 2675 
Q 3481 3041 3739 3227 
Q 3997 3413 4341 3413 
Q 4863 3413 5119 3089 
Q 5375 2766 5375 2113 
L 5375 331 
L 5894 331 
L 5894 0 
L 4300 0 
L 4300 331 
L 4800 331 
L 4800 2047 
Q 4800 2556 4650 2772 
Q 4500 2988 4153 2988 
Q 3769 2988 3567 2697 
Q 3366 2406 3366 1850 
L 3366 331 
L 3866 331 
L 3866 0 
L 2291 0 
L 2291 331 
L 2791 331 
L 2791 2069 
Q 2791 2566 2641 2777 
Q 2491 2988 2144 2988 
Q 1759 2988 1557 2697 
Q 1356 2406 1356 1850 
L 1356 331 
L 1856 331 
L 1856 0 
L 263 0 
L 263 331 
L 781 331 
L 781 2994 
L 231 2994 
L 231 3322 
L 1356 3322 
L 1356 2731 
Q 1516 3063 1762 3238 
Q 2009 3413 2322 3413 
Q 2709 3413 2968 3220 
Q 3228 3028 3316 2675 
z
" transform="scale(0.015625)"/>
       <path id="DejaVuSerif-62" d="M 738 331 
L 738 4531 
L 184 4531 
L 184 4863 
L 1313 4863 
L 1313 2803 
Q 1481 3116 1742 3264 
Q 2003 3413 2388 3413 
Q 3000 3413 3387 2928 
Q 3775 2444 3775 1663 
Q 3775 881 3387 395 
Q 3000 -91 2388 -91 
Q 2003 -91 1742 57 
Q 1481 206 1313 519 
L 1313 0 
L 184 0 
L 184 331 
L 738 331 
z
M 1313 1497 
Q 1313 897 1542 583 
Q 1772 269 2209 269 
Q 2650 269 2876 622 
Q 3103 975 3103 1663 
Q 3103 2353 2876 2703 
Q 2650 3053 2209 3053 
Q 1772 3053 1542 2737 
Q 1313 2422 1313 1825 
L 1313 1497 
z
" transform="scale(0.015625)"/>
       <path id="DejaVuSerif-65" d="M 3469 1600 
L 991 1600 
L 991 1575 
Q 991 903 1244 561 
Q 1497 219 1991 219 
Q 2369 219 2611 417 
Q 2853 616 2950 1006 
L 3413 1006 
Q 3275 459 2904 184 
Q 2534 -91 1931 -91 
Q 1203 -91 761 389 
Q 319 869 319 1663 
Q 319 2450 753 2931 
Q 1188 3413 1894 3413 
Q 2647 3413 3050 2948 
Q 3453 2484 3469 1600 
z
M 2791 1931 
Q 2772 2513 2545 2808 
Q 2319 3103 1894 3103 
Q 1497 3103 1269 2806 
Q 1041 2509 991 1931 
L 2791 1931 
z
" transform="scale(0.015625)"/>
       <path id="DejaVuSerif-72" d="M 3059 3328 
L 3059 2497 
L 2728 2497 
Q 2713 2744 2591 2866 
Q 2469 2988 2234 2988 
Q 1809 2988 1582 2694 
Q 1356 2400 1356 1850 
L 1356 331 
L 2022 331 
L 2022 0 
L 263 0 
L 263 331 
L 781 331 
L 781 2994 
L 231 2994 
L 231 3322 
L 1356 3322 
L 1356 2731 
Q 1525 3078 1790 3245 
Q 2056 3413 2438 3413 
Q 2578 3413 2733 3391 
Q 2888 3369 3059 3328 
z
" transform="scale(0.015625)"/>
       <path id="DejaVuSerif-20" transform="scale(0.015625)"/>
       <path id="DejaVuSerif-6f" d="M 1925 219 
Q 2388 219 2623 584 
Q 2859 950 2859 1663 
Q 2859 2375 2623 2739 
Q 2388 3103 1925 3103 
Q 1463 3103 1227 2739 
Q 991 2375 991 1663 
Q 991 950 1228 584 
Q 1466 219 1925 219 
z
M 1925 -91 
Q 1200 -91 759 389 
Q 319 869 319 1663 
Q 319 2456 758 2934 
Q 1197 3413 1925 3413 
Q 2653 3413 3092 2934 
Q 3531 2456 3531 1663 
Q 3531 869 3092 389 
Q 2653 -91 1925 -91 
z
" transform="scale(0.015625)"/>
       <path id="DejaVuSerif-66" d="M 2753 4078 
L 2450 4078 
Q 2447 4313 2317 4434 
Q 2188 4556 1941 4556 
Q 1619 4556 1487 4379 
Q 1356 4203 1356 3750 
L 1356 3322 
L 2284 3322 
L 2284 2988 
L 1356 2988 
L 1356 331 
L 2094 331 
L 2094 0 
L 231 0 
L 231 331 
L 781 331 
L 781 2988 
L 231 2988 
L 231 3322 
L 781 3322 
L 781 3738 
Q 781 4294 1070 4578 
Q 1359 4863 1919 4863 
Q 2128 4863 2337 4825 
Q 2547 4788 2753 4709 
L 2753 4078 
z
" transform="scale(0.015625)"/>
       <path id="DejaVuSerif-6c" d="M 1313 331 
L 1856 331 
L 1856 0 
L 184 0 
L 184 331 
L 738 331 
L 738 4531 
L 184 4531 
L 184 4863 
L 1313 4863 
L 1313 331 
z
" transform="scale(0.015625)"/>
       <path id="DejaVuSerif-61" d="M 2547 1044 
L 2547 1747 
L 1806 1747 
Q 1378 1747 1168 1562 
Q 959 1378 959 997 
Q 959 650 1171 447 
Q 1384 244 1747 244 
Q 2106 244 2326 466 
Q 2547 688 2547 1044 
z
M 3122 2075 
L 3122 331 
L 3634 331 
L 3634 0 
L 2547 0 
L 2547 359 
Q 2356 128 2106 18 
Q 1856 -91 1522 -91 
Q 969 -91 644 203 
Q 319 497 319 997 
Q 319 1513 691 1797 
Q 1063 2081 1741 2081 
L 2547 2081 
L 2547 2309 
Q 2547 2688 2317 2895 
Q 2088 3103 1672 3103 
Q 1328 3103 1125 2947 
Q 922 2791 872 2484 
L 575 2484 
L 575 3156 
Q 875 3284 1158 3348 
Q 1441 3413 1709 3413 
Q 2400 3413 2761 3070 
Q 3122 2728 3122 2075 
z
" transform="scale(0.015625)"/>
       <path id="DejaVuSerif-74" d="M 691 2988 
L 184 2988 
L 184 3322 
L 691 3322 
L 691 4353 
L 1269 4353 
L 1269 3322 
L 2350 3322 
L 2350 2988 
L 1269 2988 
L 1269 878 
Q 1269 456 1350 337 
Q 1431 219 1650 219 
Q 1875 219 1978 351 
Q 2081 484 2088 781 
L 2522 781 
Q 2497 328 2275 118 
Q 2053 -91 1600 -91 
Q 1103 -91 897 129 
Q 691 350 691 878 
L 691 2988 
z
" transform="scale(0.015625)"/>
       <path id="DejaVuSerif-64" d="M 3359 331 
L 3909 331 
L 3909 0 
L 2784 0 
L 2784 519 
Q 2616 206 2355 57 
Q 2094 -91 1709 -91 
Q 1097 -91 708 395 
Q 319 881 319 1663 
Q 319 2444 706 2928 
Q 1094 3413 1709 3413 
Q 2094 3413 2355 3264 
Q 2616 3116 2784 2803 
L 2784 4531 
L 2241 4531 
L 2241 4863 
L 3359 4863 
L 3359 331 
z
M 2784 1497 
L 2784 1825 
Q 2784 2422 2554 2737 
Q 2325 3053 1888 3053 
Q 1444 3053 1217 2703 
Q 991 2353 991 1663 
Q 991 975 1217 622 
Q 1444 269 1888 269 
Q 2325 269 2554 583 
Q 2784 897 2784 1497 
z
" transform="scale(0.015625)"/>
       <path id="DejaVuSerif-73" d="M 359 184 
L 359 959 
L 691 959 
Q 703 588 923 403 
Q 1144 219 1575 219 
Q 1963 219 2166 364 
Q 2369 509 2369 788 
Q 2369 1006 2220 1140 
Q 2072 1275 1594 1428 
L 1178 1569 
Q 750 1706 558 1912 
Q 366 2119 366 2438 
Q 366 2894 700 3153 
Q 1034 3413 1625 3413 
Q 1888 3413 2178 3344 
Q 2469 3275 2778 3144 
L 2778 2419 
L 2447 2419 
Q 2434 2741 2221 2922 
Q 2009 3103 1644 3103 
Q 1281 3103 1095 2975 
Q 909 2847 909 2591 
Q 909 2381 1050 2254 
Q 1191 2128 1613 1997 
L 2069 1856 
Q 2541 1709 2748 1489 
Q 2956 1269 2956 922 
Q 2956 450 2595 179 
Q 2234 -91 1600 -91 
Q 1278 -91 972 -22 
Q 666 47 359 184 
z
" transform="scale(0.015625)"/>
       <path id="DejaVuSerif-6b" d="M 1831 0 
L 219 0 
L 219 331 
L 738 331 
L 738 4531 
L 184 4531 
L 184 4863 
L 1313 4863 
L 1313 1697 
L 2713 2988 
L 2234 2988 
L 2234 3322 
L 3738 3322 
L 3738 2988 
L 3169 2988 
L 2181 2075 
L 3444 331 
L 3922 331 
L 3922 0 
L 2284 0 
L 2284 331 
L 2759 331 
L 1766 1697 
L 1313 1275 
L 1313 331 
L 1831 331 
L 1831 0 
z
" transform="scale(0.015625)"/>
      </defs>
      <use xlink:href="#DejaVuSerif-4e"/>
      <use xlink:href="#DejaVuSerif-75" transform="translate(87.5 0)"/>
      <use xlink:href="#DejaVuSerif-6d" transform="translate(151.904297 0)"/>
      <use xlink:href="#DejaVuSerif-62" transform="translate(246.728516 0)"/>
      <use xlink:href="#DejaVuSerif-65" transform="translate(310.742188 0)"/>
      <use xlink:href="#DejaVuSerif-72" transform="translate(369.921875 0)"/>
      <use xlink:href="#DejaVuSerif-20" transform="translate(417.724609 0)"/>
      <use xlink:href="#DejaVuSerif-6f" transform="translate(449.511719 0)"/>
      <use xlink:href="#DejaVuSerif-66" transform="translate(509.716797 0)"/>
      <use xlink:href="#DejaVuSerif-20" transform="translate(546.728516 0)"/>
      <use xlink:href="#DejaVuSerif-72" transform="translate(578.515625 0)"/>
      <use xlink:href="#DejaVuSerif-65" transform="translate(626.318359 0)"/>
      <use xlink:href="#DejaVuSerif-6c" transform="translate(685.498047 0)"/>
      <use xlink:href="#DejaVuSerif-61" transform="translate(717.480469 0)"/>
      <use xlink:href="#DejaVuSerif-74" transform="translate(777.099609 0)"/>
      <use xlink:href="#DejaVuSerif-65" transform="translate(817.285156 0)"/>
      <use xlink:href="#DejaVuSerif-64" transform="translate(876.464844 0)"/>
      <use xlink:href="#DejaVuSerif-20" transform="translate(940.478516 0)"/>
      <use xlink:href="#DejaVuSerif-74" transform="translate(972.265625 0)"/>
      <use xlink:href="#DejaVuSerif-61" transform="translate(1012.451172 0)"/>
      <use xlink:href="#DejaVuSerif-73" transform="translate(1072.070312 0)"/>
      <use xlink:href="#DejaVuSerif-6b" transform="translate(1123.388672 0)"/>
      <use xlink:href="#DejaVuSerif-73" transform="translate(1183.984375 0)"/>
     </g>
    </g>
   </g>
   <g id="matplotlib.axis_2">
    <g id="ytick_1">
     <g id="line2d_7">
      <path d="M 42.379297 126.415582 
L 216.754297 126.415582 
" clip-path="url(#p182eb0920b)" style="fill: none; stroke: #b0b0b0; stroke-opacity: 0.25; stroke-width: 0.5; stroke-linecap: square"/>
     </g>
     <g id="line2d_8">
      <defs>
       <path id="m7b9878d596" d="M 0 0 
L -3.5 0 
" style="stroke: #000000; stroke-width: 0.8"/>
      </defs>
      <g>
       <use xlink:href="#m7b9878d596" x="42.379297" y="126.415582" style="stroke: #000000; stroke-width: 0.8"/>
      </g>
     </g>
     <g id="text_5">
      <!-- $\mathdefault{10^{-1}}$ -->
      <g transform="translate(15.489297 129.644917) scale(0.085 -0.085)">
       <defs>
        <path id="DejaVuSerif-30" d="M 2034 219 
Q 2513 219 2750 744 
Q 2988 1269 2988 2328 
Q 2988 3391 2750 3916 
Q 2513 4441 2034 4441 
Q 1556 4441 1318 3916 
Q 1081 3391 1081 2328 
Q 1081 1269 1318 744 
Q 1556 219 2034 219 
z
M 2034 -91 
Q 1275 -91 848 546 
Q 422 1184 422 2328 
Q 422 3475 848 4112 
Q 1275 4750 2034 4750 
Q 2797 4750 3222 4112 
Q 3647 3475 3647 2328 
Q 3647 1184 3222 546 
Q 2797 -91 2034 -91 
z
" transform="scale(0.015625)"/>
        <path id="DejaVuSerif-2212" d="M 678 2259 
L 4684 2259 
L 4684 1753 
L 678 1753 
L 678 2259 
z
" transform="scale(0.015625)"/>
       </defs>
       <use xlink:href="#DejaVuSerif-31" transform="translate(0 0.7125)"/>
       <use xlink:href="#DejaVuSerif-30" transform="translate(63.623047 0.7125)"/>
       <use xlink:href="#DejaVuSerif-2212" transform="translate(128.154453 37.046875) scale(0.7)"/>
       <use xlink:href="#DejaVuSerif-31" transform="translate(186.806797 37.046875) scale(0.7)"/>
      </g>
     </g>
    </g>
    <g id="ytick_2">
     <g id="line2d_9">
      <path d="M 42.379297 71.285364 
L 216.754297 71.285364 
" clip-path="url(#p182eb0920b)" style="fill: none; stroke: #b0b0b0; stroke-opacity: 0.25; stroke-width: 0.5; stroke-linecap: square"/>
     </g>
     <g id="line2d_10">
      <g>
       <use xlink:href="#m7b9878d596" x="42.379297" y="71.285364" style="stroke: #000000; stroke-width: 0.8"/>
      </g>
     </g>
     <g id="text_6">
      <!-- $\mathdefault{10^{0}}$ -->
      <g transform="translate(20.419297 74.5147) scale(0.085 -0.085)">
       <use xlink:href="#DejaVuSerif-31" transform="translate(0 0.7125)"/>
       <use xlink:href="#DejaVuSerif-30" transform="translate(63.623047 0.7125)"/>
       <use xlink:href="#DejaVuSerif-30" transform="translate(128.154453 37.046875) scale(0.7)"/>
      </g>
     </g>
    </g>
    <g id="ytick_3">
     <g id="line2d_11">
      <path d="M 42.379297 16.155147 
L 216.754297 16.155147 
" clip-path="url(#p182eb0920b)" style="fill: none; stroke: #b0b0b0; stroke-opacity: 0.25; stroke-width: 0.5; stroke-linecap: square"/>
     </g>
     <g id="line2d_12">
      <g>
       <use xlink:href="#m7b9878d596" x="42.379297" y="16.155147" style="stroke: #000000; stroke-width: 0.8"/>
      </g>
     </g>
     <g id="text_7">
      <!-- $\mathdefault{10^{1}}$ -->
      <g transform="translate(20.419297 19.384483) scale(0.085 -0.085)">
       <use xlink:href="#DejaVuSerif-31" transform="translate(0 0.7125)"/>
       <use xlink:href="#DejaVuSerif-30" transform="translate(63.623047 0.7125)"/>
       <use xlink:href="#DejaVuSerif-31" transform="translate(128.154453 37.046875) scale(0.7)"/>
      </g>
     </g>
    </g>
    <g id="ytick_4">
     <g id="line2d_13">
      <path d="M 42.379297 155.242 
L 216.754297 155.242 
" clip-path="url(#p182eb0920b)" style="fill: none; stroke: #b0b0b0; stroke-opacity: 0.25; stroke-width: 0.5; stroke-linecap: square"/>
     </g>
     <g id="line2d_14">
      <defs>
       <path id="m8ff3556b3e" d="M 0 0 
L -2 0 
" style="stroke: #000000; stroke-width: 0.6"/>
      </defs>
      <g>
       <use xlink:href="#m8ff3556b3e" x="42.379297" y="155.242" style="stroke: #000000; stroke-width: 0.6"/>
      </g>
     </g>
    </g>
    <g id="ytick_5">
     <g id="line2d_15">
      <path d="M 42.379297 148.354101 
L 216.754297 148.354101 
" clip-path="url(#p182eb0920b)" style="fill: none; stroke: #b0b0b0; stroke-opacity: 0.25; stroke-width: 0.5; stroke-linecap: square"/>
     </g>
     <g id="line2d_16">
      <g>
       <use xlink:href="#m8ff3556b3e" x="42.379297" y="148.354101" style="stroke: #000000; stroke-width: 0.6"/>
      </g>
     </g>
    </g>
    <g id="ytick_6">
     <g id="line2d_17">
      <path d="M 42.379297 143.011431 
L 216.754297 143.011431 
" clip-path="url(#p182eb0920b)" style="fill: none; stroke: #b0b0b0; stroke-opacity: 0.25; stroke-width: 0.5; stroke-linecap: square"/>
     </g>
     <g id="line2d_18">
      <g>
       <use xlink:href="#m8ff3556b3e" x="42.379297" y="143.011431" style="stroke: #000000; stroke-width: 0.6"/>
      </g>
     </g>
    </g>
    <g id="ytick_7">
     <g id="line2d_19">
      <path d="M 42.379297 138.646151 
L 216.754297 138.646151 
" clip-path="url(#p182eb0920b)" style="fill: none; stroke: #b0b0b0; stroke-opacity: 0.25; stroke-width: 0.5; stroke-linecap: square"/>
     </g>
     <g id="line2d_20">
      <g>
       <use xlink:href="#m8ff3556b3e" x="42.379297" y="138.646151" style="stroke: #000000; stroke-width: 0.6"/>
      </g>
     </g>
    </g>
    <g id="ytick_8">
     <g id="line2d_21">
      <path d="M 42.379297 134.95536 
L 216.754297 134.95536 
" clip-path="url(#p182eb0920b)" style="fill: none; stroke: #b0b0b0; stroke-opacity: 0.25; stroke-width: 0.5; stroke-linecap: square"/>
     </g>
     <g id="line2d_22">
      <g>
       <use xlink:href="#m8ff3556b3e" x="42.379297" y="134.95536" style="stroke: #000000; stroke-width: 0.6"/>
      </g>
     </g>
    </g>
    <g id="ytick_9">
     <g id="line2d_23">
      <path d="M 42.379297 131.758252 
L 216.754297 131.758252 
" clip-path="url(#p182eb0920b)" style="fill: none; stroke: #b0b0b0; stroke-opacity: 0.25; stroke-width: 0.5; stroke-linecap: square"/>
     </g>
     <g id="line2d_24">
      <g>
       <use xlink:href="#m8ff3556b3e" x="42.379297" y="131.758252" style="stroke: #000000; stroke-width: 0.6"/>
      </g>
     </g>
    </g>
    <g id="ytick_10">
     <g id="line2d_25">
      <path d="M 42.379297 128.938202 
L 216.754297 128.938202 
" clip-path="url(#p182eb0920b)" style="fill: none; stroke: #b0b0b0; stroke-opacity: 0.25; stroke-width: 0.5; stroke-linecap: square"/>
     </g>
     <g id="line2d_26">
      <g>
       <use xlink:href="#m8ff3556b3e" x="42.379297" y="128.938202" style="stroke: #000000; stroke-width: 0.6"/>
      </g>
     </g>
    </g>
    <g id="ytick_11">
     <g id="line2d_27">
      <path d="M 42.379297 109.819732 
L 216.754297 109.819732 
" clip-path="url(#p182eb0920b)" style="fill: none; stroke: #b0b0b0; stroke-opacity: 0.25; stroke-width: 0.5; stroke-linecap: square"/>
     </g>
     <g id="line2d_28">
      <g>
       <use xlink:href="#m8ff3556b3e" x="42.379297" y="109.819732" style="stroke: #000000; stroke-width: 0.6"/>
      </g>
     </g>
    </g>
    <g id="ytick_12">
     <g id="line2d_29">
      <path d="M 42.379297 100.111783 
L 216.754297 100.111783 
" clip-path="url(#p182eb0920b)" style="fill: none; stroke: #b0b0b0; stroke-opacity: 0.25; stroke-width: 0.5; stroke-linecap: square"/>
     </g>
     <g id="line2d_30">
      <g>
       <use xlink:href="#m8ff3556b3e" x="42.379297" y="100.111783" style="stroke: #000000; stroke-width: 0.6"/>
      </g>
     </g>
    </g>
    <g id="ytick_13">
     <g id="line2d_31">
      <path d="M 42.379297 93.223883 
L 216.754297 93.223883 
" clip-path="url(#p182eb0920b)" style="fill: none; stroke: #b0b0b0; stroke-opacity: 0.25; stroke-width: 0.5; stroke-linecap: square"/>
     </g>
     <g id="line2d_32">
      <g>
       <use xlink:href="#m8ff3556b3e" x="42.379297" y="93.223883" style="stroke: #000000; stroke-width: 0.6"/>
      </g>
     </g>
    </g>
    <g id="ytick_14">
     <g id="line2d_33">
      <path d="M 42.379297 87.881213 
L 216.754297 87.881213 
" clip-path="url(#p182eb0920b)" style="fill: none; stroke: #b0b0b0; stroke-opacity: 0.25; stroke-width: 0.5; stroke-linecap: square"/>
     </g>
     <g id="line2d_34">
      <g>
       <use xlink:href="#m8ff3556b3e" x="42.379297" y="87.881213" style="stroke: #000000; stroke-width: 0.6"/>
      </g>
     </g>
    </g>
    <g id="ytick_15">
     <g id="line2d_35">
      <path d="M 42.379297 83.515934 
L 216.754297 83.515934 
" clip-path="url(#p182eb0920b)" style="fill: none; stroke: #b0b0b0; stroke-opacity: 0.25; stroke-width: 0.5; stroke-linecap: square"/>
     </g>
     <g id="line2d_36">
      <g>
       <use xlink:href="#m8ff3556b3e" x="42.379297" y="83.515934" style="stroke: #000000; stroke-width: 0.6"/>
      </g>
     </g>
    </g>
    <g id="ytick_16">
     <g id="line2d_37">
      <path d="M 42.379297 79.825143 
L 216.754297 79.825143 
" clip-path="url(#p182eb0920b)" style="fill: none; stroke: #b0b0b0; stroke-opacity: 0.25; stroke-width: 0.5; stroke-linecap: square"/>
     </g>
     <g id="line2d_38">
      <g>
       <use xlink:href="#m8ff3556b3e" x="42.379297" y="79.825143" style="stroke: #000000; stroke-width: 0.6"/>
      </g>
     </g>
    </g>
    <g id="ytick_17">
     <g id="line2d_39">
      <path d="M 42.379297 76.628034 
L 216.754297 76.628034 
" clip-path="url(#p182eb0920b)" style="fill: none; stroke: #b0b0b0; stroke-opacity: 0.25; stroke-width: 0.5; stroke-linecap: square"/>
     </g>
     <g id="line2d_40">
      <g>
       <use xlink:href="#m8ff3556b3e" x="42.379297" y="76.628034" style="stroke: #000000; stroke-width: 0.6"/>
      </g>
     </g>
    </g>
    <g id="ytick_18">
     <g id="line2d_41">
      <path d="M 42.379297 73.807985 
L 216.754297 73.807985 
" clip-path="url(#p182eb0920b)" style="fill: none; stroke: #b0b0b0; stroke-opacity: 0.25; stroke-width: 0.5; stroke-linecap: square"/>
     </g>
     <g id="line2d_42">
      <g>
       <use xlink:href="#m8ff3556b3e" x="42.379297" y="73.807985" style="stroke: #000000; stroke-width: 0.6"/>
      </g>
     </g>
    </g>
    <g id="ytick_19">
     <g id="line2d_43">
      <path d="M 42.379297 54.689515 
L 216.754297 54.689515 
" clip-path="url(#p182eb0920b)" style="fill: none; stroke: #b0b0b0; stroke-opacity: 0.25; stroke-width: 0.5; stroke-linecap: square"/>
     </g>
     <g id="line2d_44">
      <g>
       <use xlink:href="#m8ff3556b3e" x="42.379297" y="54.689515" style="stroke: #000000; stroke-width: 0.6"/>
      </g>
     </g>
    </g>
    <g id="ytick_20">
     <g id="line2d_45">
      <path d="M 42.379297 44.981566 
L 216.754297 44.981566 
" clip-path="url(#p182eb0920b)" style="fill: none; stroke: #b0b0b0; stroke-opacity: 0.25; stroke-width: 0.5; stroke-linecap: square"/>
     </g>
     <g id="line2d_46">
      <g>
       <use xlink:href="#m8ff3556b3e" x="42.379297" y="44.981566" style="stroke: #000000; stroke-width: 0.6"/>
      </g>
     </g>
    </g>
    <g id="ytick_21">
     <g id="line2d_47">
      <path d="M 42.379297 38.093666 
L 216.754297 38.093666 
" clip-path="url(#p182eb0920b)" style="fill: none; stroke: #b0b0b0; stroke-opacity: 0.25; stroke-width: 0.5; stroke-linecap: square"/>
     </g>
     <g id="line2d_48">
      <g>
       <use xlink:href="#m8ff3556b3e" x="42.379297" y="38.093666" style="stroke: #000000; stroke-width: 0.6"/>
      </g>
     </g>
    </g>
    <g id="ytick_22">
     <g id="line2d_49">
      <path d="M 42.379297 32.750996 
L 216.754297 32.750996 
" clip-path="url(#p182eb0920b)" style="fill: none; stroke: #b0b0b0; stroke-opacity: 0.25; stroke-width: 0.5; stroke-linecap: square"/>
     </g>
     <g id="line2d_50">
      <g>
       <use xlink:href="#m8ff3556b3e" x="42.379297" y="32.750996" style="stroke: #000000; stroke-width: 0.6"/>
      </g>
     </g>
    </g>
    <g id="ytick_23">
     <g id="line2d_51">
      <path d="M 42.379297 28.385717 
L 216.754297 28.385717 
" clip-path="url(#p182eb0920b)" style="fill: none; stroke: #b0b0b0; stroke-opacity: 0.25; stroke-width: 0.5; stroke-linecap: square"/>
     </g>
     <g id="line2d_52">
      <g>
       <use xlink:href="#m8ff3556b3e" x="42.379297" y="28.385717" style="stroke: #000000; stroke-width: 0.6"/>
      </g>
     </g>
    </g>
    <g id="ytick_24">
     <g id="line2d_53">
      <path d="M 42.379297 24.694926 
L 216.754297 24.694926 
" clip-path="url(#p182eb0920b)" style="fill: none; stroke: #b0b0b0; stroke-opacity: 0.25; stroke-width: 0.5; stroke-linecap: square"/>
     </g>
     <g id="line2d_54">
      <g>
       <use xlink:href="#m8ff3556b3e" x="42.379297" y="24.694926" style="stroke: #000000; stroke-width: 0.6"/>
      </g>
     </g>
    </g>
    <g id="ytick_25">
     <g id="line2d_55">
      <path d="M 42.379297 21.497817 
L 216.754297 21.497817 
" clip-path="url(#p182eb0920b)" style="fill: none; stroke: #b0b0b0; stroke-opacity: 0.25; stroke-width: 0.5; stroke-linecap: square"/>
     </g>
     <g id="line2d_56">
      <g>
       <use xlink:href="#m8ff3556b3e" x="42.379297" y="21.497817" style="stroke: #000000; stroke-width: 0.6"/>
      </g>
     </g>
    </g>
    <g id="ytick_26">
     <g id="line2d_57">
      <path d="M 42.379297 18.677767 
L 216.754297 18.677767 
" clip-path="url(#p182eb0920b)" style="fill: none; stroke: #b0b0b0; stroke-opacity: 0.25; stroke-width: 0.5; stroke-linecap: square"/>
     </g>
     <g id="line2d_58">
      <g>
       <use xlink:href="#m8ff3556b3e" x="42.379297" y="18.677767" style="stroke: #000000; stroke-width: 0.6"/>
      </g>
     </g>
    </g>
    <g id="text_8">
     <!-- Median mean regret (IQR band) -->
     <g transform="translate(9.378516 163.524836) rotate(-90) scale(0.095 -0.095)">
      <defs>
       <path id="DejaVuSerif-4d" d="M 353 0 
L 353 331 
L 947 331 
L 947 4331 
L 319 4331 
L 319 4666 
L 1678 4666 
L 3316 1344 
L 4953 4666 
L 6228 4666 
L 6228 4331 
L 5606 4331 
L 5606 331 
L 6203 331 
L 6203 0 
L 4378 0 
L 4378 331 
L 4972 331 
L 4972 3938 
L 3372 684 
L 2931 684 
L 1331 3938 
L 1331 331 
L 1925 331 
L 1925 0 
L 353 0 
z
" transform="scale(0.015625)"/>
       <path id="DejaVuSerif-69" d="M 622 4353 
Q 622 4497 726 4603 
Q 831 4709 978 4709 
Q 1122 4709 1226 4603 
Q 1331 4497 1331 4353 
Q 1331 4206 1228 4103 
Q 1125 4000 978 4000 
Q 831 4000 726 4103 
Q 622 4206 622 4353 
z
M 1356 331 
L 1900 331 
L 1900 0 
L 231 0 
L 231 331 
L 781 331 
L 781 2988 
L 231 2988 
L 231 3322 
L 1356 3322 
L 1356 331 
z
" transform="scale(0.015625)"/>
       <path id="DejaVuSerif-6e" d="M 263 0 
L 263 331 
L 781 331 
L 781 2988 
L 231 2988 
L 231 3322 
L 1356 3322 
L 1356 2731 
Q 1516 3069 1770 3241 
Q 2025 3413 2363 3413 
Q 2913 3413 3172 3097 
Q 3431 2781 3431 2113 
L 3431 331 
L 3944 331 
L 3944 0 
L 2356 0 
L 2356 331 
L 2853 331 
L 2853 1931 
Q 2853 2541 2703 2767 
Q 2553 2994 2175 2994 
Q 1775 2994 1565 2701 
Q 1356 2409 1356 1850 
L 1356 331 
L 1856 331 
L 1856 0 
L 263 0 
z
" transform="scale(0.015625)"/>
       <path id="DejaVuSerif-67" d="M 3359 2988 
L 3359 72 
Q 3359 -644 2965 -1033 
Q 2572 -1422 1844 -1422 
Q 1516 -1422 1216 -1362 
Q 916 -1303 641 -1184 
L 641 -488 
L 941 -488 
Q 997 -813 1206 -963 
Q 1416 -1113 1806 -1113 
Q 2313 -1113 2548 -827 
Q 2784 -541 2784 72 
L 2784 519 
Q 2616 206 2355 57 
Q 2094 -91 1709 -91 
Q 1097 -91 708 395 
Q 319 881 319 1663 
Q 319 2444 706 2928 
Q 1094 3413 1709 3413 
Q 2094 3413 2355 3264 
Q 2616 3116 2784 2803 
L 2784 3322 
L 3909 3322 
L 3909 2988 
L 3359 2988 
z
M 2784 1825 
Q 2784 2422 2554 2737 
Q 2325 3053 1888 3053 
Q 1444 3053 1217 2703 
Q 991 2353 991 1663 
Q 991 975 1217 622 
Q 1444 269 1888 269 
Q 2325 269 2554 583 
Q 2784 897 2784 1497 
L 2784 1825 
z
" transform="scale(0.015625)"/>
       <path id="DejaVuSerif-28" d="M 2041 -997 
Q 1281 -656 893 83 
Q 506 822 506 1931 
Q 506 3044 893 3783 
Q 1281 4522 2041 4863 
L 2041 4556 
Q 1559 4225 1350 3623 
Q 1141 3022 1141 1931 
Q 1141 844 1350 242 
Q 1559 -359 2041 -691 
L 2041 -997 
z
" transform="scale(0.015625)"/>
       <path id="DejaVuSerif-49" d="M 1581 331 
L 2175 331 
L 2175 0 
L 353 0 
L 353 331 
L 947 331 
L 947 4331 
L 353 4331 
L 353 4666 
L 2175 4666 
L 2175 4331 
L 1581 4331 
L 1581 331 
z
" transform="scale(0.015625)"/>
       <path id="DejaVuSerif-51" d="M 2700 -91 
Q 1628 -91 993 567 
Q 359 1225 359 2328 
Q 359 2894 529 3339 
Q 700 3784 1050 4134 
Q 1356 4441 1750 4595 
Q 2144 4750 2625 4750 
Q 3641 4750 4266 4084 
Q 4891 3419 4891 2328 
Q 4891 1403 4422 773 
Q 3953 144 3128 -38 
Q 3297 -247 3539 -347 
Q 3781 -447 4122 -447 
L 4219 -447 
L 4219 -1025 
Q 3691 -1000 3314 -767 
Q 2938 -534 2700 -91 
z
M 2625 244 
Q 3391 244 3781 770 
Q 4172 1297 4172 2328 
Q 4172 3363 3781 3889 
Q 3391 4416 2625 4416 
Q 1856 4416 1465 3889 
Q 1075 3363 1075 2328 
Q 1075 1297 1465 770 
Q 1856 244 2625 244 
z
" transform="scale(0.015625)"/>
       <path id="DejaVuSerif-52" d="M 3066 2316 
Q 3284 2256 3442 2114 
Q 3600 1972 3725 1716 
L 4403 331 
L 4972 331 
L 4972 0 
L 3872 0 
L 3144 1484 
Q 2934 1916 2759 2042 
Q 2584 2169 2278 2169 
L 1581 2169 
L 1581 331 
L 2241 331 
L 2241 0 
L 353 0 
L 353 331 
L 947 331 
L 947 4331 
L 353 4331 
L 353 4666 
L 2719 4666 
Q 3400 4666 3770 4341 
Q 4141 4016 4141 3419 
Q 4141 2938 3870 2661 
Q 3600 2384 3066 2316 
z
M 1581 2503 
L 2503 2503 
Q 2975 2503 3200 2726 
Q 3425 2950 3425 3419 
Q 3425 3888 3200 4109 
Q 2975 4331 2503 4331 
L 1581 4331 
L 1581 2503 
z
" transform="scale(0.015625)"/>
       <path id="DejaVuSerif-29" d="M 453 -997 
L 453 -691 
Q 934 -359 1145 242 
Q 1356 844 1356 1931 
Q 1356 3022 1145 3623 
Q 934 4225 453 4556 
L 453 4863 
Q 1216 4522 1603 3783 
Q 1991 3044 1991 1931 
Q 1991 822 1603 83 
Q 1216 -656 453 -997 
z
" transform="scale(0.015625)"/>
      </defs>
      <use xlink:href="#DejaVuSerif-4d"/>
      <use xlink:href="#DejaVuSerif-65" transform="translate(102.392578 0)"/>
      <use xlink:href="#DejaVuSerif-64" transform="translate(161.572266 0)"/>
      <use xlink:href="#DejaVuSerif-69" transform="translate(225.585938 0)"/>
      <use xlink:href="#DejaVuSerif-61" transform="translate(257.568359 0)"/>
      <use xlink:href="#DejaVuSerif-6e" transform="translate(317.1875 0)"/>
      <use xlink:href="#DejaVuSerif-20" transform="translate(381.591797 0)"/>
      <use xlink:href="#DejaVuSerif-6d" transform="translate(413.378906 0)"/>
      <use xlink:href="#DejaVuSerif-65" transform="translate(508.203125 0)"/>
      <use xlink:href="#DejaVuSerif-61" transform="translate(567.382812 0)"/>
      <use xlink:href="#DejaVuSerif-6e" transform="translate(627.001953 0)"/>
      <use xlink:href="#DejaVuSerif-20" transform="translate(691.40625 0)"/>
      <use xlink:href="#DejaVuSerif-72" transform="translate(723.193359 0)"/>
      <use xlink:href="#DejaVuSerif-65" transform="translate(770.996094 0)"/>
      <use xlink:href="#DejaVuSerif-67" transform="translate(830.175781 0)"/>
      <use xlink:href="#DejaVuSerif-72" transform="translate(894.189453 0)"/>
      <use xlink:href="#DejaVuSerif-65" transform="translate(941.992188 0)"/>
      <use xlink:href="#DejaVuSerif-74" transform="translate(1001.171875 0)"/>
      <use xlink:href="#DejaVuSerif-20" transform="translate(1041.357422 0)"/>
      <use xlink:href="#DejaVuSerif-28" transform="translate(1073.144531 0)"/>
      <use xlink:href="#DejaVuSerif-49" transform="translate(1112.158203 0)"/>
      <use xlink:href="#DejaVuSerif-51" transform="translate(1151.660156 0)"/>
      <use xlink:href="#DejaVuSerif-52" transform="translate(1233.642578 0)"/>
      <use xlink:href="#DejaVuSerif-20" transform="translate(1308.935547 0)"/>
      <use xlink:href="#DejaVuSerif-62" transform="translate(1340.722656 0)"/>
      <use xlink:href="#DejaVuSerif-61" transform="translate(1404.736328 0)"/>
      <use xlink:href="#DejaVuSerif-6e" transform="translate(1464.355469 0)"/>
      <use xlink:href="#DejaVuSerif-64" transform="translate(1528.759766 0)"/>
      <use xlink:href="#DejaVuSerif-29" transform="translate(1592.773438 0)"/>
     </g>
    </g>
   </g>
   <g id="line2d_59">
    <path d="M 50.305433 94.884557 
L 129.566797 100.788905 
L 208.828161 94.567431 
" clip-path="url(#p182eb0920b)" style="fill: none; stroke: #d55e00; stroke-width: 1.3; stroke-linecap: square"/>
    <defs>
     <path id="m3fd87663c0" d="M 0 2 
C 0.530406 2 1.03916 1.789267 1.414214 1.414214 
C 1.789267 1.03916 2 0.530406 2 0 
C 2 -0.530406 1.789267 -1.03916 1.414214 -1.414214 
C 1.03916 -1.789267 0.530406 -2 0 -2 
C -0.530406 -2 -1.03916 -1.789267 -1.414214 -1.414214 
C -1.789267 -1.03916 -2 -0.530406 -2 0 
C -2 0.530406 -1.789267 1.03916 -1.414214 1.414214 
C -1.03916 1.789267 -0.530406 2 0 2 
z
" style="stroke: #d55e00"/>
    </defs>
    <g clip-path="url(#p182eb0920b)">
     <use xlink:href="#m3fd87663c0" x="50.305433" y="94.884557" style="fill: #d55e00; stroke: #d55e00"/>
     <use xlink:href="#m3fd87663c0" x="129.566797" y="100.788905" style="fill: #d55e00; stroke: #d55e00"/>
     <use xlink:href="#m3fd87663c0" x="208.828161" y="94.567431" style="fill: #d55e00; stroke: #d55e00"/>
    </g>
   </g>
   <g id="line2d_60">
    <path d="M 50.305433 101.165914 
L 129.566797 91.36324 
L 208.828161 90.172284 
" clip-path="url(#p182eb0920b)" style="fill: none; stroke: #0072b2; stroke-width: 1.3; stroke-linecap: square"/>
    <defs>
     <path id="m254b15fa7a" d="M -2 2 
L 2 2 
L 2 -2 
L -2 -2 
z
" style="stroke: #0072b2; stroke-linejoin: miter"/>
    </defs>
    <g clip-path="url(#p182eb0920b)">
     <use xlink:href="#m254b15fa7a" x="50.305433" y="101.165914" style="fill: #0072b2; stroke: #0072b2; stroke-linejoin: miter"/>
     <use xlink:href="#m254b15fa7a" x="129.566797" y="91.36324" style="fill: #0072b2; stroke: #0072b2; stroke-linejoin: miter"/>
     <use xlink:href="#m254b15fa7a" x="208.828161" y="90.172284" style="fill: #0072b2; stroke: #0072b2; stroke-linejoin: miter"/>
    </g>
   </g>
   <g id="line2d_61">
    <path d="M 50.305433 101.57901 
L 129.566797 94.754453 
L 208.828161 100.941849 
" clip-path="url(#p182eb0920b)" style="fill: none; stroke: #000000; stroke-width: 1.3; stroke-linecap: square"/>
    <defs>
     <path id="ma9eb790d1a" d="M 0 -2 
L -0.449028 -0.618034 
L -1.902113 -0.618034 
L -0.726543 0.236068 
L -1.175571 1.618034 
L -0 0.763932 
L 1.175571 1.618034 
L 0.726543 0.236068 
L 1.902113 -0.618034 
L 0.449028 -0.618034 
z
" style="stroke: #000000; stroke-linejoin: bevel"/>
    </defs>
    <g clip-path="url(#p182eb0920b)">
     <use xlink:href="#ma9eb790d1a" x="50.305433" y="101.57901" style="stroke: #000000; stroke-linejoin: bevel"/>
     <use xlink:href="#ma9eb790d1a" x="129.566797" y="94.754453" style="stroke: #000000; stroke-linejoin: bevel"/>
     <use xlink:href="#ma9eb790d1a" x="208.828161" y="100.941849" style="stroke: #000000; stroke-linejoin: bevel"/>
    </g>
   </g>
   <g id="line2d_62">
    <path d="M 50.305433 111.402615 
L 129.566797 91.452526 
L 208.828161 71.495095 
" clip-path="url(#p182eb0920b)" style="fill: none; stroke: #8a8a8a; stroke-width: 1.3; stroke-linecap: square"/>
    <defs>
     <path id="m7a43515615" d="M -1 2 
L 0 1 
L 1 2 
L 2 1 
L 1 0 
L 2 -1 
L 1 -2 
L 0 -1 
L -1 -2 
L -2 -1 
L -1 0 
L -2 1 
z
" style="stroke: #8a8a8a; stroke-linejoin: miter"/>
    </defs>
    <g clip-path="url(#p182eb0920b)">
     <use xlink:href="#m7a43515615" x="50.305433" y="111.402615" style="fill: #8a8a8a; stroke: #8a8a8a; stroke-linejoin: miter"/>
     <use xlink:href="#m7a43515615" x="129.566797" y="91.452526" style="fill: #8a8a8a; stroke: #8a8a8a; stroke-linejoin: miter"/>
     <use xlink:href="#m7a43515615" x="208.828161" y="71.495095" style="fill: #8a8a8a; stroke: #8a8a8a; stroke-linejoin: miter"/>
    </g>
   </g>
   <g id="patch_3">
    <path d="M 42.379297 162.243 
L 42.379297 9.783 
" style="fill: none; stroke: #000000; stroke-width: 0.7; stroke-linejoin: miter; stroke-linecap: square"/>
   </g>
   <g id="patch_4">
    <path d="M 216.754297 162.243 
L 216.754297 9.783 
" style="fill: none; stroke: #000000; stroke-width: 0.7; stroke-linejoin: miter; stroke-linecap: square"/>
   </g>
   <g id="patch_5">
    <path d="M 42.379297 162.243 
L 216.754297 162.243 
" style="fill: none; stroke: #000000; stroke-width: 0.7; stroke-linejoin: miter; stroke-linecap: square"/>
   </g>
   <g id="patch_6">
    <path d="M 42.379297 9.783 
L 216.754297 9.783 
" style="fill: none; stroke: #000000; stroke-width: 0.7; stroke-linejoin: miter; stroke-linecap: square"/>
   </g>
   <g id="text_9">
    <!-- a -->
    <g transform="translate(17.966797 9.378516) scale(0.095 -0.095)">
     <defs>
      <path id="DejaVuSerif-Bold-61" d="M 3525 2041 
L 3525 378 
L 4000 378 
L 4000 0 
L 2419 0 
L 2419 422 
Q 2200 159 1931 34 
Q 1663 -91 1319 -91 
Q 809 -91 536 182 
Q 263 456 263 966 
Q 263 1525 655 1803 
Q 1047 2081 1838 2081 
L 2419 2081 
L 2419 2278 
Q 2419 2681 2228 2873 
Q 2038 3066 1638 3066 
Q 1306 3066 1126 2930 
Q 947 2794 872 2484 
L 519 2484 
L 519 3200 
Q 816 3306 1134 3359 
Q 1453 3413 1806 3413 
Q 2697 3413 3111 3081 
Q 3525 2750 3525 2041 
z
M 2419 1044 
L 2419 1709 
L 2003 1709 
Q 1694 1709 1528 1540 
Q 1363 1372 1363 1056 
Q 1363 741 1483 584 
Q 1603 428 1850 428 
Q 2106 428 2262 597 
Q 2419 766 2419 1044 
z
" transform="scale(0.015625)"/>
     </defs>
     <use xlink:href="#DejaVuSerif-Bold-61"/>
    </g>
   </g>
   <g id="legend_1">
    <g id="line2d_63">
     <path d="M 48.949297 19.344859 
L 56.249297 19.344859 
L 63.549297 19.344859 
" style="fill: none; stroke: #d55e00; stroke-width: 1.3; stroke-linecap: square"/>
     <g>
      <use xlink:href="#m3fd87663c0" x="56.249297" y="19.344859" style="fill: #d55e00; stroke: #d55e00"/>
     </g>
    </g>
    <g id="text_10">
     <!-- Cross, reused -->
     <g transform="translate(69.389297 21.899859) scale(0.073 -0.073)">
      <defs>
       <path id="DejaVuSerif-43" d="M 4513 1234 
Q 4306 581 3820 245 
Q 3334 -91 2591 -91 
Q 2134 -91 1743 65 
Q 1353 222 1050 525 
Q 700 875 529 1320 
Q 359 1766 359 2328 
Q 359 3416 987 4083 
Q 1616 4750 2644 4750 
Q 3025 4750 3456 4650 
Q 3888 4550 4384 4347 
L 4384 3272 
L 4031 3272 
Q 3916 3859 3567 4137 
Q 3219 4416 2591 4416 
Q 1844 4416 1459 3886 
Q 1075 3356 1075 2328 
Q 1075 1303 1459 773 
Q 1844 244 2591 244 
Q 3113 244 3450 492 
Q 3788 741 3938 1234 
L 4513 1234 
z
" transform="scale(0.015625)"/>
       <path id="DejaVuSerif-2c" d="M 231 -622 
Q 525 -406 662 -114 
Q 800 178 800 594 
L 800 709 
L 1416 709 
Q 1391 175 1164 -208 
Q 938 -591 481 -872 
L 231 -622 
z
" transform="scale(0.015625)"/>
      </defs>
      <use xlink:href="#DejaVuSerif-43"/>
      <use xlink:href="#DejaVuSerif-72" transform="translate(76.513672 0)"/>
      <use xlink:href="#DejaVuSerif-6f" transform="translate(124.316406 0)"/>
      <use xlink:href="#DejaVuSerif-73" transform="translate(184.521484 0)"/>
      <use xlink:href="#DejaVuSerif-73" transform="translate(235.839844 0)"/>
      <use xlink:href="#DejaVuSerif-2c" transform="translate(287.158203 0)"/>
      <use xlink:href="#DejaVuSerif-20" transform="translate(318.945312 0)"/>
      <use xlink:href="#DejaVuSerif-72" transform="translate(350.732422 0)"/>
      <use xlink:href="#DejaVuSerif-65" transform="translate(398.535156 0)"/>
      <use xlink:href="#DejaVuSerif-75" transform="translate(457.714844 0)"/>
      <use xlink:href="#DejaVuSerif-73" transform="translate(522.119141 0)"/>
      <use xlink:href="#DejaVuSerif-65" transform="translate(573.4375 0)"/>
      <use xlink:href="#DejaVuSerif-64" transform="translate(632.617188 0)"/>
     </g>
    </g>
    <g id="line2d_64">
     <path d="M 48.949297 30.059891 
L 56.249297 30.059891 
L 63.549297 30.059891 
" style="fill: none; stroke: #0072b2; stroke-width: 1.3; stroke-linecap: square"/>
     <g>
      <use xlink:href="#m254b15fa7a" x="56.249297" y="30.059891" style="fill: #0072b2; stroke: #0072b2; stroke-linejoin: miter"/>
     </g>
    </g>
    <g id="text_11">
     <!-- Full ZO, equal total budget -->
     <g transform="translate(69.389297 32.614891) scale(0.073 -0.073)">
      <defs>
       <path id="DejaVuSerif-46" d="M 353 0 
L 353 331 
L 947 331 
L 947 4331 
L 353 4331 
L 353 4666 
L 4172 4666 
L 4172 3628 
L 3788 3628 
L 3788 4281 
L 1581 4281 
L 1581 2719 
L 3175 2719 
L 3175 3303 
L 3559 3303 
L 3559 1753 
L 3175 1753 
L 3175 2338 
L 1581 2338 
L 1581 331 
L 2328 331 
L 2328 0 
L 353 0 
z
" transform="scale(0.015625)"/>
       <path id="DejaVuSerif-5a" d="M 288 0 
L 288 225 
L 3194 4281 
L 781 4281 
L 781 3584 
L 397 3584 
L 397 4666 
L 4084 4666 
L 4084 4441 
L 1178 384 
L 3816 384 
L 3816 1038 
L 4197 1038 
L 4197 0 
L 288 0 
z
" transform="scale(0.015625)"/>
       <path id="DejaVuSerif-4f" d="M 2625 244 
Q 3391 244 3781 770 
Q 4172 1297 4172 2328 
Q 4172 3363 3781 3889 
Q 3391 4416 2625 4416 
Q 1856 4416 1465 3889 
Q 1075 3363 1075 2328 
Q 1075 1297 1465 770 
Q 1856 244 2625 244 
z
M 2625 -91 
Q 2150 -91 1751 65 
Q 1353 222 1050 525 
Q 700 875 529 1319 
Q 359 1763 359 2328 
Q 359 2894 529 3339 
Q 700 3784 1050 4134 
Q 1356 4441 1750 4595 
Q 2144 4750 2625 4750 
Q 3641 4750 4266 4084 
Q 4891 3419 4891 2328 
Q 4891 1769 4719 1320 
Q 4547 872 4197 525 
Q 3891 219 3497 64 
Q 3103 -91 2625 -91 
z
" transform="scale(0.015625)"/>
       <path id="DejaVuSerif-71" d="M 3359 2988 
L 3359 -997 
L 3909 -997 
L 3909 -1331 
L 2241 -1331 
L 2241 -997 
L 2784 -997 
L 2784 519 
Q 2616 206 2355 57 
Q 2094 -91 1709 -91 
Q 1097 -91 708 395 
Q 319 881 319 1663 
Q 319 2444 706 2928 
Q 1094 3413 1709 3413 
Q 2094 3413 2355 3264 
Q 2616 3116 2784 2803 
L 2784 3322 
L 3909 3322 
L 3909 2988 
L 3359 2988 
z
M 2784 1825 
Q 2784 2422 2554 2737 
Q 2325 3053 1888 3053 
Q 1444 3053 1217 2703 
Q 991 2353 991 1663 
Q 991 975 1217 622 
Q 1444 269 1888 269 
Q 2325 269 2554 583 
Q 2784 897 2784 1497 
L 2784 1825 
z
" transform="scale(0.015625)"/>
      </defs>
      <use xlink:href="#DejaVuSerif-46"/>
      <use xlink:href="#DejaVuSerif-75" transform="translate(69.384766 0)"/>
      <use xlink:href="#DejaVuSerif-6c" transform="translate(133.789062 0)"/>
      <use xlink:href="#DejaVuSerif-6c" transform="translate(165.771484 0)"/>
      <use xlink:href="#DejaVuSerif-20" transform="translate(197.753906 0)"/>
      <use xlink:href="#DejaVuSerif-5a" transform="translate(229.541016 0)"/>
      <use xlink:href="#DejaVuSerif-4f" transform="translate(299.023438 0)"/>
      <use xlink:href="#DejaVuSerif-2c" transform="translate(375.130859 0)"/>
      <use xlink:href="#DejaVuSerif-20" transform="translate(406.917969 0)"/>
      <use xlink:href="#DejaVuSerif-65" transform="translate(438.705078 0)"/>
      <use xlink:href="#DejaVuSerif-71" transform="translate(497.884766 0)"/>
      <use xlink:href="#DejaVuSerif-75" transform="translate(561.898438 0)"/>
      <use xlink:href="#DejaVuSerif-61" transform="translate(626.302734 0)"/>
      <use xlink:href="#DejaVuSerif-6c" transform="translate(685.921875 0)"/>
      <use xlink:href="#DejaVuSerif-20" transform="translate(717.904297 0)"/>
      <use xlink:href="#DejaVuSerif-74" transform="translate(749.691406 0)"/>
      <use xlink:href="#DejaVuSerif-6f" transform="translate(789.876953 0)"/>
      <use xlink:href="#DejaVuSerif-74" transform="translate(850.082031 0)"/>
      <use xlink:href="#DejaVuSerif-61" transform="translate(890.267578 0)"/>
      <use xlink:href="#DejaVuSerif-6c" transform="translate(949.886719 0)"/>
      <use xlink:href="#DejaVuSerif-20" transform="translate(981.869141 0)"/>
      <use xlink:href="#DejaVuSerif-62" transform="translate(1013.65625 0)"/>
      <use xlink:href="#DejaVuSerif-75" transform="translate(1077.669922 0)"/>
      <use xlink:href="#DejaVuSerif-64" transform="translate(1142.074219 0)"/>
      <use xlink:href="#DejaVuSerif-67" transform="translate(1206.087891 0)"/>
      <use xlink:href="#DejaVuSerif-65" transform="translate(1270.101562 0)"/>
      <use xlink:href="#DejaVuSerif-74" transform="translate(1329.28125 0)"/>
     </g>
    </g>
    <g id="line2d_65">
     <path d="M 48.949297 40.878719 
L 56.249297 40.878719 
L 63.549297 40.878719 
" style="fill: none; stroke: #000000; stroke-width: 1.3; stroke-linecap: square"/>
     <g>
      <use xlink:href="#ma9eb790d1a" x="56.249297" y="40.878719" style="stroke: #000000; stroke-linejoin: bevel"/>
     </g>
    </g>
    <g id="text_12">
     <!-- Oracle subspace -->
     <g transform="translate(69.389297 43.433719) scale(0.073 -0.073)">
      <defs>
       <path id="DejaVuSerif-63" d="M 3291 997 
Q 3169 466 2822 187 
Q 2475 -91 1925 -91 
Q 1200 -91 759 389 
Q 319 869 319 1663 
Q 319 2459 759 2936 
Q 1200 3413 1925 3413 
Q 2241 3413 2553 3339 
Q 2866 3266 3181 3116 
L 3181 2266 
L 2847 2266 
Q 2781 2703 2561 2903 
Q 2341 3103 1931 3103 
Q 1466 3103 1228 2742 
Q 991 2381 991 1663 
Q 991 944 1227 581 
Q 1463 219 1931 219 
Q 2303 219 2525 412 
Q 2747 606 2828 997 
L 3291 997 
z
" transform="scale(0.015625)"/>
       <path id="DejaVuSerif-70" d="M 1313 1825 
L 1313 1497 
Q 1313 897 1542 583 
Q 1772 269 2209 269 
Q 2650 269 2876 622 
Q 3103 975 3103 1663 
Q 3103 2353 2876 2703 
Q 2650 3053 2209 3053 
Q 1772 3053 1542 2737 
Q 1313 2422 1313 1825 
z
M 738 2988 
L 184 2988 
L 184 3322 
L 1313 3322 
L 1313 2803 
Q 1481 3116 1742 3264 
Q 2003 3413 2388 3413 
Q 3000 3413 3387 2928 
Q 3775 2444 3775 1663 
Q 3775 881 3387 395 
Q 3000 -91 2388 -91 
Q 2003 -91 1742 57 
Q 1481 206 1313 519 
L 1313 -997 
L 1856 -997 
L 1856 -1331 
L 184 -1331 
L 184 -997 
L 738 -997 
L 738 2988 
z
" transform="scale(0.015625)"/>
      </defs>
      <use xlink:href="#DejaVuSerif-4f"/>
      <use xlink:href="#DejaVuSerif-72" transform="translate(81.982422 0)"/>
      <use xlink:href="#DejaVuSerif-61" transform="translate(129.785156 0)"/>
      <use xlink:href="#DejaVuSerif-63" transform="translate(189.404297 0)"/>
      <use xlink:href="#DejaVuSerif-6c" transform="translate(245.410156 0)"/>
      <use xlink:href="#DejaVuSerif-65" transform="translate(277.392578 0)"/>
      <use xlink:href="#DejaVuSerif-20" transform="translate(336.572266 0)"/>
      <use xlink:href="#DejaVuSerif-73" transform="translate(368.359375 0)"/>
      <use xlink:href="#DejaVuSerif-75" transform="translate(419.677734 0)"/>
      <use xlink:href="#DejaVuSerif-62" transform="translate(484.082031 0)"/>
      <use xlink:href="#DejaVuSerif-73" transform="translate(548.095703 0)"/>
      <use xlink:href="#DejaVuSerif-70" transform="translate(599.414062 0)"/>
      <use xlink:href="#DejaVuSerif-61" transform="translate(663.427734 0)"/>
      <use xlink:href="#DejaVuSerif-63" transform="translate(723.046875 0)"/>
      <use xlink:href="#DejaVuSerif-65" transform="translate(779.052734 0)"/>
     </g>
    </g>
    <g id="line2d_66">
     <path d="M 48.949297 51.59375 
L 56.249297 51.59375 
L 63.549297 51.59375 
" style="fill: none; stroke: #8a8a8a; stroke-width: 1.3; stroke-linecap: square"/>
     <g>
      <use xlink:href="#m7a43515615" x="56.249297" y="51.59375" style="fill: #8a8a8a; stroke: #8a8a8a; stroke-linejoin: miter"/>
     </g>
    </g>
    <g id="text_13">
     <!-- Random subspace -->
     <g transform="translate(69.389297 54.14875) scale(0.073 -0.073)">
      <use xlink:href="#DejaVuSerif-52"/>
      <use xlink:href="#DejaVuSerif-61" transform="translate(77.542969 0)"/>
      <use xlink:href="#DejaVuSerif-6e" transform="translate(137.162109 0)"/>
      <use xlink:href="#DejaVuSerif-64" transform="translate(201.566406 0)"/>
      <use xlink:href="#DejaVuSerif-6f" transform="translate(265.580078 0)"/>
      <use xlink:href="#DejaVuSerif-6d" transform="translate(325.785156 0)"/>
      <use xlink:href="#DejaVuSerif-20" transform="translate(420.609375 0)"/>
      <use xlink:href="#DejaVuSerif-73" transform="translate(452.396484 0)"/>
      <use xlink:href="#DejaVuSerif-75" transform="translate(503.714844 0)"/>
      <use xlink:href="#DejaVuSerif-62" transform="translate(568.119141 0)"/>
      <use xlink:href="#DejaVuSerif-73" transform="translate(632.132812 0)"/>
      <use xlink:href="#DejaVuSerif-70" transform="translate(683.451172 0)"/>
      <use xlink:href="#DejaVuSerif-61" transform="translate(747.464844 0)"/>
      <use xlink:href="#DejaVuSerif-63" transform="translate(807.083984 0)"/>
      <use xlink:href="#DejaVuSerif-65" transform="translate(863.089844 0)"/>
     </g>
    </g>
   </g>
  </g>
  <g id="axes_2">
   <g id="patch_7">
    <path d="M 272.554297 162.243 
L 446.929297 162.243 
L 446.929297 9.783 
L 272.554297 9.783 
z
" style="fill: #ffffff"/>
   </g>
   <g id="matplotlib.axis_3">
    <g id="xtick_4">
     <g id="line2d_67">
      <path d="M 280.480433 162.243 
L 280.480433 9.783 
" clip-path="url(#p4a27a298ca)" style="fill: none; stroke: #b0b0b0; stroke-opacity: 0.25; stroke-width: 0.5; stroke-linecap: square"/>
     </g>
     <g id="line2d_68">
      <g>
       <use xlink:href="#m1c26169ca1" x="280.480433" y="162.243" style="stroke: #000000; stroke-width: 0.8"/>
      </g>
     </g>
     <g id="text_14">
      <!-- 1 -->
      <g transform="translate(277.776371 175.701672) scale(0.085 -0.085)">
       <use xlink:href="#DejaVuSerif-31"/>
      </g>
     </g>
    </g>
    <g id="xtick_5">
     <g id="line2d_69">
      <path d="M 359.741797 162.243 
L 359.741797 9.783 
" clip-path="url(#p4a27a298ca)" style="fill: none; stroke: #b0b0b0; stroke-opacity: 0.25; stroke-width: 0.5; stroke-linecap: square"/>
     </g>
     <g id="line2d_70">
      <g>
       <use xlink:href="#m1c26169ca1" x="359.741797" y="162.243" style="stroke: #000000; stroke-width: 0.8"/>
      </g>
     </g>
     <g id="text_15">
      <!-- 3 -->
      <g transform="translate(357.037734 175.701672) scale(0.085 -0.085)">
       <use xlink:href="#DejaVuSerif-33"/>
      </g>
     </g>
    </g>
    <g id="xtick_6">
     <g id="line2d_71">
      <path d="M 439.003161 162.243 
L 439.003161 9.783 
" clip-path="url(#p4a27a298ca)" style="fill: none; stroke: #b0b0b0; stroke-opacity: 0.25; stroke-width: 0.5; stroke-linecap: square"/>
     </g>
     <g id="line2d_72">
      <g>
       <use xlink:href="#m1c26169ca1" x="439.003161" y="162.243" style="stroke: #000000; stroke-width: 0.8"/>
      </g>
     </g>
     <g id="text_16">
      <!-- 5 -->
      <g transform="translate(436.299098 175.701672) scale(0.085 -0.085)">
       <use xlink:href="#DejaVuSerif-35"/>
      </g>
     </g>
    </g>
    <g id="text_17">
     <!-- Number of related tasks -->
     <g transform="translate(301.064453 188.687922) scale(0.095 -0.095)">
      <use xlink:href="#DejaVuSerif-4e"/>
      <use xlink:href="#DejaVuSerif-75" transform="translate(87.5 0)"/>
      <use xlink:href="#DejaVuSerif-6d" transform="translate(151.904297 0)"/>
      <use xlink:href="#DejaVuSerif-62" transform="translate(246.728516 0)"/>
      <use xlink:href="#DejaVuSerif-65" transform="translate(310.742188 0)"/>
      <use xlink:href="#DejaVuSerif-72" transform="translate(369.921875 0)"/>
      <use xlink:href="#DejaVuSerif-20" transform="translate(417.724609 0)"/>
      <use xlink:href="#DejaVuSerif-6f" transform="translate(449.511719 0)"/>
      <use xlink:href="#DejaVuSerif-66" transform="translate(509.716797 0)"/>
      <use xlink:href="#DejaVuSerif-20" transform="translate(546.728516 0)"/>
      <use xlink:href="#DejaVuSerif-72" transform="translate(578.515625 0)"/>
      <use xlink:href="#DejaVuSerif-65" transform="translate(626.318359 0)"/>
      <use xlink:href="#DejaVuSerif-6c" transform="translate(685.498047 0)"/>
      <use xlink:href="#DejaVuSerif-61" transform="translate(717.480469 0)"/>
      <use xlink:href="#DejaVuSerif-74" transform="translate(777.099609 0)"/>
      <use xlink:href="#DejaVuSerif-65" transform="translate(817.285156 0)"/>
      <use xlink:href="#DejaVuSerif-64" transform="translate(876.464844 0)"/>
      <use xlink:href="#DejaVuSerif-20" transform="translate(940.478516 0)"/>
      <use xlink:href="#DejaVuSerif-74" transform="translate(972.265625 0)"/>
      <use xlink:href="#DejaVuSerif-61" transform="translate(1012.451172 0)"/>
      <use xlink:href="#DejaVuSerif-73" transform="translate(1072.070312 0)"/>
      <use xlink:href="#DejaVuSerif-6b" transform="translate(1123.388672 0)"/>
      <use xlink:href="#DejaVuSerif-73" transform="translate(1183.984375 0)"/>
     </g>
    </g>
   </g>
   <g id="matplotlib.axis_4">
    <g id="ytick_27">
     <g id="line2d_73">
      <path d="M 272.554297 158.703366 
L 446.929297 158.703366 
" clip-path="url(#p4a27a298ca)" style="fill: none; stroke: #b0b0b0; stroke-opacity: 0.25; stroke-width: 0.5; stroke-linecap: square"/>
     </g>
     <g id="line2d_74">
      <g>
       <use xlink:href="#m7b9878d596" x="272.554297" y="158.703366" style="stroke: #000000; stroke-width: 0.8"/>
      </g>
     </g>
     <g id="text_18">
      <!-- −0.3 -->
      <g transform="translate(244.913906 161.932702) scale(0.085 -0.085)">
       <defs>
        <path id="DejaVuSerif-2e" d="M 603 325 
Q 603 500 722 622 
Q 841 744 1019 744 
Q 1191 744 1312 622 
Q 1434 500 1434 325 
Q 1434 153 1312 31 
Q 1191 -91 1019 -91 
Q 841 -91 722 29 
Q 603 150 603 325 
z
" transform="scale(0.015625)"/>
       </defs>
       <use xlink:href="#DejaVuSerif-2212"/>
       <use xlink:href="#DejaVuSerif-30" transform="translate(83.789062 0)"/>
       <use xlink:href="#DejaVuSerif-2e" transform="translate(147.412109 0)"/>
       <use xlink:href="#DejaVuSerif-33" transform="translate(179.199219 0)"/>
      </g>
     </g>
    </g>
    <g id="ytick_28">
     <g id="line2d_75">
      <path d="M 272.554297 133.743634 
L 446.929297 133.743634 
" clip-path="url(#p4a27a298ca)" style="fill: none; stroke: #b0b0b0; stroke-opacity: 0.25; stroke-width: 0.5; stroke-linecap: square"/>
     </g>
     <g id="line2d_76">
      <g>
       <use xlink:href="#m7b9878d596" x="272.554297" y="133.743634" style="stroke: #000000; stroke-width: 0.8"/>
      </g>
     </g>
     <g id="text_19">
      <!-- −0.2 -->
      <g transform="translate(244.913906 136.97297) scale(0.085 -0.085)">
       <defs>
        <path id="DejaVuSerif-32" d="M 819 3553 
L 469 3553 
L 469 4384 
Q 803 4563 1142 4656 
Q 1481 4750 1806 4750 
Q 2534 4750 2956 4397 
Q 3378 4044 3378 3438 
Q 3378 2753 2422 1800 
Q 2347 1728 2309 1691 
L 1131 513 
L 3078 513 
L 3078 1088 
L 3444 1088 
L 3444 0 
L 434 0 
L 434 341 
L 1850 1753 
Q 2319 2222 2519 2614 
Q 2719 3006 2719 3438 
Q 2719 3909 2473 4175 
Q 2228 4441 1797 4441 
Q 1350 4441 1106 4219 
Q 863 3997 819 3553 
z
" transform="scale(0.015625)"/>
       </defs>
       <use xlink:href="#DejaVuSerif-2212"/>
       <use xlink:href="#DejaVuSerif-30" transform="translate(83.789062 0)"/>
       <use xlink:href="#DejaVuSerif-2e" transform="translate(147.412109 0)"/>
       <use xlink:href="#DejaVuSerif-32" transform="translate(179.199219 0)"/>
      </g>
     </g>
    </g>
    <g id="ytick_29">
     <g id="line2d_77">
      <path d="M 272.554297 108.783902 
L 446.929297 108.783902 
" clip-path="url(#p4a27a298ca)" style="fill: none; stroke: #b0b0b0; stroke-opacity: 0.25; stroke-width: 0.5; stroke-linecap: square"/>
     </g>
     <g id="line2d_78">
      <g>
       <use xlink:href="#m7b9878d596" x="272.554297" y="108.783902" style="stroke: #000000; stroke-width: 0.8"/>
      </g>
     </g>
     <g id="text_20">
      <!-- −0.1 -->
      <g transform="translate(244.913906 112.013238) scale(0.085 -0.085)">
       <use xlink:href="#DejaVuSerif-2212"/>
       <use xlink:href="#DejaVuSerif-30" transform="translate(83.789062 0)"/>
       <use xlink:href="#DejaVuSerif-2e" transform="translate(147.412109 0)"/>
       <use xlink:href="#DejaVuSerif-31" transform="translate(179.199219 0)"/>
      </g>
     </g>
    </g>
    <g id="ytick_30">
     <g id="line2d_79">
      <path d="M 272.554297 83.82417 
L 446.929297 83.82417 
" clip-path="url(#p4a27a298ca)" style="fill: none; stroke: #b0b0b0; stroke-opacity: 0.25; stroke-width: 0.5; stroke-linecap: square"/>
     </g>
     <g id="line2d_80">
      <g>
       <use xlink:href="#m7b9878d596" x="272.554297" y="83.82417" style="stroke: #000000; stroke-width: 0.8"/>
      </g>
     </g>
     <g id="text_21">
      <!-- 0.0 -->
      <g transform="translate(252.036641 87.053506) scale(0.085 -0.085)">
       <use xlink:href="#DejaVuSerif-30"/>
       <use xlink:href="#DejaVuSerif-2e" transform="translate(63.623047 0)"/>
       <use xlink:href="#DejaVuSerif-30" transform="translate(95.410156 0)"/>
      </g>
     </g>
    </g>
    <g id="ytick_31">
     <g id="line2d_81">
      <path d="M 272.554297 58.864437 
L 446.929297 58.864437 
" clip-path="url(#p4a27a298ca)" style="fill: none; stroke: #b0b0b0; stroke-opacity: 0.25; stroke-width: 0.5; stroke-linecap: square"/>
     </g>
     <g id="line2d_82">
      <g>
       <use xlink:href="#m7b9878d596" x="272.554297" y="58.864437" style="stroke: #000000; stroke-width: 0.8"/>
      </g>
     </g>
     <g id="text_22">
      <!-- 0.1 -->
      <g transform="translate(252.036641 62.093773) scale(0.085 -0.085)">
       <use xlink:href="#DejaVuSerif-30"/>
       <use xlink:href="#DejaVuSerif-2e" transform="translate(63.623047 0)"/>
       <use xlink:href="#DejaVuSerif-31" transform="translate(95.410156 0)"/>
      </g>
     </g>
    </g>
    <g id="ytick_32">
     <g id="line2d_83">
      <path d="M 272.554297 33.904705 
L 446.929297 33.904705 
" clip-path="url(#p4a27a298ca)" style="fill: none; stroke: #b0b0b0; stroke-opacity: 0.25; stroke-width: 0.5; stroke-linecap: square"/>
     </g>
     <g id="line2d_84">
      <g>
       <use xlink:href="#m7b9878d596" x="272.554297" y="33.904705" style="stroke: #000000; stroke-width: 0.8"/>
      </g>
     </g>
     <g id="text_23">
      <!-- 0.2 -->
      <g transform="translate(252.036641 37.134041) scale(0.085 -0.085)">
       <use xlink:href="#DejaVuSerif-30"/>
       <use xlink:href="#DejaVuSerif-2e" transform="translate(63.623047 0)"/>
       <use xlink:href="#DejaVuSerif-32" transform="translate(95.410156 0)"/>
      </g>
     </g>
    </g>
    <g id="text_24">
     <!-- Cross minus full, mean $\log_{10}$ regret -->
     <g transform="translate(238.728906 171.893) rotate(-90) scale(0.095 -0.095)">
      <defs>
       <path id="DejaVuSans-6c" d="M 603 4863 
L 1178 4863 
L 1178 0 
L 603 0 
L 603 4863 
z
" transform="scale(0.015625)"/>
       <path id="DejaVuSans-6f" d="M 1959 3097 
Q 1497 3097 1228 2736 
Q 959 2375 959 1747 
Q 959 1119 1226 758 
Q 1494 397 1959 397 
Q 2419 397 2687 759 
Q 2956 1122 2956 1747 
Q 2956 2369 2687 2733 
Q 2419 3097 1959 3097 
z
M 1959 3584 
Q 2709 3584 3137 3096 
Q 3566 2609 3566 1747 
Q 3566 888 3137 398 
Q 2709 -91 1959 -91 
Q 1206 -91 779 398 
Q 353 888 353 1747 
Q 353 2609 779 3096 
Q 1206 3584 1959 3584 
z
" transform="scale(0.015625)"/>
       <path id="DejaVuSans-67" d="M 2906 1791 
Q 2906 2416 2648 2759 
Q 2391 3103 1925 3103 
Q 1463 3103 1205 2759 
Q 947 2416 947 1791 
Q 947 1169 1205 825 
Q 1463 481 1925 481 
Q 2391 481 2648 825 
Q 2906 1169 2906 1791 
z
M 3481 434 
Q 3481 -459 3084 -895 
Q 2688 -1331 1869 -1331 
Q 1566 -1331 1297 -1286 
Q 1028 -1241 775 -1147 
L 775 -588 
Q 1028 -725 1275 -790 
Q 1522 -856 1778 -856 
Q 2344 -856 2625 -561 
Q 2906 -266 2906 331 
L 2906 616 
Q 2728 306 2450 153 
Q 2172 0 1784 0 
Q 1141 0 747 490 
Q 353 981 353 1791 
Q 353 2603 747 3093 
Q 1141 3584 1784 3584 
Q 2172 3584 2450 3431 
Q 2728 3278 2906 2969 
L 2906 3500 
L 3481 3500 
L 3481 434 
z
" transform="scale(0.015625)"/>
       <path id="DejaVuSans-31" d="M 794 531 
L 1825 531 
L 1825 4091 
L 703 3866 
L 703 4441 
L 1819 4666 
L 2450 4666 
L 2450 531 
L 3481 531 
L 3481 0 
L 794 0 
L 794 531 
z
" transform="scale(0.015625)"/>
       <path id="DejaVuSans-30" d="M 2034 4250 
Q 1547 4250 1301 3770 
Q 1056 3291 1056 2328 
Q 1056 1369 1301 889 
Q 1547 409 2034 409 
Q 2525 409 2770 889 
Q 3016 1369 3016 2328 
Q 3016 3291 2770 3770 
Q 2525 4250 2034 4250 
z
M 2034 4750 
Q 2819 4750 3233 4129 
Q 3647 3509 3647 2328 
Q 3647 1150 3233 529 
Q 2819 -91 2034 -91 
Q 1250 -91 836 529 
Q 422 1150 422 2328 
Q 422 3509 836 4129 
Q 1250 4750 2034 4750 
z
" transform="scale(0.015625)"/>
      </defs>
      <use xlink:href="#DejaVuSerif-43" transform="translate(0 0.015625)"/>
      <use xlink:href="#DejaVuSerif-72" transform="translate(76.513672 0.015625)"/>
      <use xlink:href="#DejaVuSerif-6f" transform="translate(124.316406 0.015625)"/>
      <use xlink:href="#DejaVuSerif-73" transform="translate(184.521484 0.015625)"/>
      <use xlink:href="#DejaVuSerif-73" transform="translate(235.839844 0.015625)"/>
      <use xlink:href="#DejaVuSerif-20" transform="translate(287.158203 0.015625)"/>
      <use xlink:href="#DejaVuSerif-6d" transform="translate(318.945312 0.015625)"/>
      <use xlink:href="#DejaVuSerif-69" transform="translate(413.769531 0.015625)"/>
      <use xlink:href="#DejaVuSerif-6e" transform="translate(445.751953 0.015625)"/>
      <use xlink:href="#DejaVuSerif-75" transform="translate(510.15625 0.015625)"/>
      <use xlink:href="#DejaVuSerif-73" transform="translate(574.560547 0.015625)"/>
      <use xlink:href="#DejaVuSerif-20" transform="translate(625.878906 0.015625)"/>
      <use xlink:href="#DejaVuSerif-66" transform="translate(657.666016 0.015625)"/>
      <use xlink:href="#DejaVuSerif-75" transform="translate(694.677734 0.015625)"/>
      <use xlink:href="#DejaVuSerif-6c" transform="translate(759.082031 0.015625)"/>
      <use xlink:href="#DejaVuSerif-6c" transform="translate(791.064453 0.015625)"/>
      <use xlink:href="#DejaVuSerif-2c" transform="translate(823.046875 0.015625)"/>
      <use xlink:href="#DejaVuSerif-20" transform="translate(854.833984 0.015625)"/>
      <use xlink:href="#DejaVuSerif-6d" transform="translate(886.621094 0.015625)"/>
      <use xlink:href="#DejaVuSerif-65" transform="translate(981.445312 0.015625)"/>
      <use xlink:href="#DejaVuSerif-61" transform="translate(1040.625 0.015625)"/>
      <use xlink:href="#DejaVuSerif-6e" transform="translate(1100.244141 0.015625)"/>
      <use xlink:href="#DejaVuSerif-20" transform="translate(1164.648438 0.015625)"/>
      <use xlink:href="#DejaVuSans-6c" transform="translate(1196.435547 0.015625)"/>
      <use xlink:href="#DejaVuSans-6f" transform="translate(1224.21875 0.015625)"/>
      <use xlink:href="#DejaVuSans-67" transform="translate(1285.400391 0.015625)"/>
      <use xlink:href="#DejaVuSans-31" transform="translate(1349.833984 -16.390625) scale(0.7)"/>
      <use xlink:href="#DejaVuSans-30" transform="translate(1394.370117 -16.390625) scale(0.7)"/>
      <use xlink:href="#DejaVuSerif-20" transform="translate(1457.876301 0.015625)"/>
      <use xlink:href="#DejaVuSerif-72" transform="translate(1489.663411 0.015625)"/>
      <use xlink:href="#DejaVuSerif-65" transform="translate(1537.466145 0.015625)"/>
      <use xlink:href="#DejaVuSerif-67" transform="translate(1596.645833 0.015625)"/>
      <use xlink:href="#DejaVuSerif-72" transform="translate(1660.659504 0.015625)"/>
      <use xlink:href="#DejaVuSerif-65" transform="translate(1708.462239 0.015625)"/>
      <use xlink:href="#DejaVuSerif-74" transform="translate(1767.641926 0.015625)"/>
     </g>
    </g>
   </g>
   <g id="LineCollection_1">
    <path d="M 280.480433 117.960059 
L 280.480433 16.713 
" clip-path="url(#p4a27a298ca)" style="fill: none; stroke: #d55e00; stroke-width: 1.2"/>
    <path d="M 359.741797 155.313 
L 359.741797 76.84295 
" clip-path="url(#p4a27a298ca)" style="fill: none; stroke: #d55e00; stroke-width: 1.2"/>
    <path d="M 439.003161 123.335663 
L 439.003161 75.884242 
" clip-path="url(#p4a27a298ca)" style="fill: none; stroke: #d55e00; stroke-width: 1.2"/>
   </g>
   <g id="line2d_85">
    <defs>
     <path id="ma97c16bb21" d="M 3 0 
L -3 -0 
" style="stroke: #d55e00"/>
    </defs>
    <g clip-path="url(#p4a27a298ca)">
     <use xlink:href="#ma97c16bb21" x="280.480433" y="117.960059" style="fill: #d55e00; stroke: #d55e00"/>
     <use xlink:href="#ma97c16bb21" x="359.741797" y="155.313" style="fill: #d55e00; stroke: #d55e00"/>
     <use xlink:href="#ma97c16bb21" x="439.003161" y="123.335663" style="fill: #d55e00; stroke: #d55e00"/>
    </g>
   </g>
   <g id="line2d_86">
    <g clip-path="url(#p4a27a298ca)">
     <use xlink:href="#ma97c16bb21" x="280.480433" y="16.713" style="fill: #d55e00; stroke: #d55e00"/>
     <use xlink:href="#ma97c16bb21" x="359.741797" y="76.84295" style="fill: #d55e00; stroke: #d55e00"/>
     <use xlink:href="#ma97c16bb21" x="439.003161" y="75.884242" style="fill: #d55e00; stroke: #d55e00"/>
    </g>
   </g>
   <g id="line2d_87">
    <path d="M 272.554297 83.82417 
L 446.929297 83.82417 
" clip-path="url(#p4a27a298ca)" style="fill: none; stroke-dasharray: 2.96,1.28; stroke-dashoffset: 0; stroke: #000000; stroke-width: 0.8"/>
   </g>
   <g id="line2d_88">
    <path d="M 280.480433 69.973183 
L 359.741797 113.87588 
L 439.003161 98.729122 
" clip-path="url(#p4a27a298ca)" style="fill: none; stroke: #d55e00; stroke-width: 1.2; stroke-linecap: square"/>
    <g clip-path="url(#p4a27a298ca)">
     <use xlink:href="#m3fd87663c0" x="280.480433" y="69.973183" style="fill: #d55e00; stroke: #d55e00"/>
     <use xlink:href="#m3fd87663c0" x="359.741797" y="113.87588" style="fill: #d55e00; stroke: #d55e00"/>
     <use xlink:href="#m3fd87663c0" x="439.003161" y="98.729122" style="fill: #d55e00; stroke: #d55e00"/>
    </g>
   </g>
   <g id="patch_8">
    <path d="M 272.554297 162.243 
L 272.554297 9.783 
" style="fill: none; stroke: #000000; stroke-width: 0.7; stroke-linejoin: miter; stroke-linecap: square"/>
   </g>
   <g id="patch_9">
    <path d="M 446.929297 162.243 
L 446.929297 9.783 
" style="fill: none; stroke: #000000; stroke-width: 0.7; stroke-linejoin: miter; stroke-linecap: square"/>
   </g>
   <g id="patch_10">
    <path d="M 272.554297 162.243 
L 446.929297 162.243 
" style="fill: none; stroke: #000000; stroke-width: 0.7; stroke-linejoin: miter; stroke-linecap: square"/>
   </g>
   <g id="patch_11">
    <path d="M 272.554297 9.783 
L 446.929297 9.783 
" style="fill: none; stroke: #000000; stroke-width: 0.7; stroke-linejoin: miter; stroke-linecap: square"/>
   </g>
   <g id="text_25">
    <!-- negative favors reuse -->
    <g transform="translate(277.785547 156.1446) scale(0.08 -0.08)">
     <defs>
      <path id="DejaVuSerif-76" d="M 1581 0 
L 359 2988 
L -19 2988 
L -19 3322 
L 1509 3322 
L 1509 2988 
L 978 2988 
L 1913 703 
L 2847 2988 
L 2350 2988 
L 2350 3322 
L 3597 3322 
L 3597 2988 
L 3225 2988 
L 2003 0 
L 1581 0 
z
" transform="scale(0.015625)"/>
     </defs>
     <use xlink:href="#DejaVuSerif-6e"/>
     <use xlink:href="#DejaVuSerif-65" transform="translate(64.404297 0)"/>
     <use xlink:href="#DejaVuSerif-67" transform="translate(123.583984 0)"/>
     <use xlink:href="#DejaVuSerif-61" transform="translate(187.597656 0)"/>
     <use xlink:href="#DejaVuSerif-74" transform="translate(247.216797 0)"/>
     <use xlink:href="#DejaVuSerif-69" transform="translate(287.402344 0)"/>
     <use xlink:href="#DejaVuSerif-76" transform="translate(319.384766 0)"/>
     <use xlink:href="#DejaVuSerif-65" transform="translate(375.878906 0)"/>
     <use xlink:href="#DejaVuSerif-20" transform="translate(435.058594 0)"/>
     <use xlink:href="#DejaVuSerif-66" transform="translate(466.845703 0)"/>
     <use xlink:href="#DejaVuSerif-61" transform="translate(503.857422 0)"/>
     <use xlink:href="#DejaVuSerif-76" transform="translate(563.476562 0)"/>
     <use xlink:href="#DejaVuSerif-6f" transform="translate(619.970703 0)"/>
     <use xlink:href="#DejaVuSerif-72" transform="translate(680.175781 0)"/>
     <use xlink:href="#DejaVuSerif-73" transform="translate(727.978516 0)"/>
     <use xlink:href="#DejaVuSerif-20" transform="translate(779.296875 0)"/>
     <use xlink:href="#DejaVuSerif-72" transform="translate(811.083984 0)"/>
     <use xlink:href="#DejaVuSerif-65" transform="translate(858.886719 0)"/>
     <use xlink:href="#DejaVuSerif-75" transform="translate(918.066406 0)"/>
     <use xlink:href="#DejaVuSerif-73" transform="translate(982.470703 0)"/>
     <use xlink:href="#DejaVuSerif-65" transform="translate(1033.789062 0)"/>
    </g>
   </g>
   <g id="text_26">
    <!-- b -->
    <g transform="translate(248.141797 9.378516) scale(0.095 -0.095)">
     <defs>
      <path id="DejaVuSerif-Bold-62" d="M 622 378 
L 622 4488 
L 147 4488 
L 147 4863 
L 1728 4863 
L 1728 2900 
Q 1869 3159 2106 3286 
Q 2344 3413 2694 3413 
Q 3403 3413 3811 2945 
Q 4219 2478 4219 1663 
Q 4219 847 3811 378 
Q 3403 -91 2694 -91 
Q 2344 -91 2106 36 
Q 1869 163 1728 422 
L 1728 0 
L 147 0 
L 147 378 
L 622 378 
z
M 1728 1497 
Q 1728 916 1876 656 
Q 2025 397 2356 397 
Q 2697 397 2836 672 
Q 2975 947 2975 1663 
Q 2975 2378 2836 2651 
Q 2697 2925 2356 2925 
Q 2025 2925 1876 2665 
Q 1728 2406 1728 1825 
L 1728 1497 
z
" transform="scale(0.015625)"/>
     </defs>
     <use xlink:href="#DejaVuSerif-Bold-62"/>
    </g>
   </g>
  </g>
 </g>
 <defs>
  <clipPath id="p182eb0920b">
   <rect x="42.379297" y="9.783" width="174.375" height="152.46"/>
  </clipPath>
  <clipPath id="p4a27a298ca">
   <rect x="272.554297" y="9.783" width="174.375" height="152.46"/>
  </clipPath>
 </defs>
</svg>
