<?xml version="1.0" encoding="utf-8" standalone="no"?>
<!DOCTYPE svg PUBLIC "-//W3C//DTD SVG 1.1//EN"
  "http://www.w3.org/Graphics/SVG/1.1/DTD/svg11.dtd">
<svg xmlns:xlink="http://www.w3.org/1999/xlink" width="452.585pt" height="218.720625pt" viewBox="0 0 452.585 218.720625" xmlns="http://www.w3.org/2000/svg" version="1.1">
 <metadata>
  <rdf:RDF xmlns:dc="http://purl.org/dc/elements/1.1/" xmlns:cc="http://creativecommons.org/ns#" xmlns:rdf="http://www.w3.org/1999/02/22-rdf-syntax-ns#">
   <cc:Work>
    <dc:type rdf:resource="http://purl.org/dc/dcmitype/StillImage"/>
    <dc:date>2026-07-18T14:35:58.048245</dc:date>
    <dc:format>image/svg+xml</dc:format>
    <dc:creator>
     <cc:Agent>
      <dc:title>Matplotlib v3.10.8, https://matplotlib.org/</dc:title>
     </cc:Agent>
    </dc:creator>
   </cc:Work>
  </rdf:RDF>
 </metadata>
 <defs>
  <style type="text/css">*{stroke-linejoin: round; stroke-linecap: butt}</style>
 </defs>
 <g id="figure_1">
  <g id="patch_1">
   <path d="M 0 218.720625 
L 452.585 218.720625 
L 452.585 0 
L 0 0 
z
" style="fill: #ffffff"/>
  </g>
  <g id="axes_1">
   <g id="patch_2">
    <path d="M 45.875 188.14 
L 223.309211 188.14 
L 223.309211 55.48 
L 45.875 55.48 
z
" style="fill: #ffffff"/>
   </g>
   <g id="FillBetweenPolyCollection_1">
    <defs>
     <path id="m291d310e4a" d="M 53.940191 -157.210625 
L 53.940191 -148.839191 
L 80.824163 -129.395107 
L 107.708134 -107.480371 
L 134.592105 -87.870126 
L 161.476077 -76.311255 
L 188.360048 -59.593305 
L 215.244019 -36.610625 
L 215.244019 -42.478426 
L 215.244019 -42.478426 
L 188.360048 -66.821734 
L 161.476077 -82.944319 
L 134.592105 -96.300103 
L 107.708134 -113.115853 
L 80.824163 -135.124914 
L 53.940191 -157.210625 
z
"/>
    </defs>
    <g clip-path="url(#p9fb9251359)">
     <use xlink:href="#m291d310e4a" x="0" y="218.720625" style="fill: #d55e00; fill-opacity: 0.13"/>
    </g>
   </g>
   <g id="FillBetweenPolyCollection_2">
    <defs>
     <path id="mda975e8bff" d="M 53.940191 -138.838531 
L 53.940191 -127.180864 
L 80.824163 -119.334427 
L 107.708134 -97.966111 
L 134.592105 -95.83108 
L 161.476077 -93.199313 
L 188.360048 -83.737392 
L 215.244019 -79.958267 
L 215.244019 -84.208273 
L 215.244019 -84.208273 
L 188.360048 -89.031039 
L 161.476077 -99.087621 
L 134.592105 -103.759673 
L 107.708134 -105.716398 
L 80.824163 -126.430808 
L 53.940191 -138.838531 
z
"/>
    </defs>
    <g clip-path="url(#p9fb9251359)">
     <use xlink:href="#mda975e8bff" x="0" y="218.720625" style="fill: #0072b2; fill-opacity: 0.13"/>
    </g>
   </g>
   <g id="FillBetweenPolyCollection_3">
    <defs>
     <path id="m637062e6bf" d="M 53.940191 -137.865422 
L 53.940191 -126.011628 
L 80.824163 -112.688331 
L 107.708134 -95.515175 
L 134.592105 -89.043511 
L 161.476077 -82.639464 
L 188.360048 -77.924782 
L 215.244019 -72.210467 
L 215.244019 -76.853771 
L 215.244019 -76.853771 
L 188.360048 -83.923473 
L 161.476077 -89.28021 
L 134.592105 -95.724912 
L 107.708134 -101.81423 
L 80.824163 -119.245785 
L 53.940191 -137.865422 
z
"/>
    </defs>
    <g clip-path="url(#p9fb9251359)">
     <use xlink:href="#m637062e6bf" x="0" y="218.720625" style="fill: #009e73; fill-opacity: 0.13"/>
    </g>
   </g>
   <g id="matplotlib.axis_1">
    <g id="xtick_1">
     <g id="line2d_1">
      <path d="M 72.169457 188.14 
L 72.169457 55.48 
" clip-path="url(#p9fb9251359)" style="fill: none; stroke: #b0b0b0; stroke-opacity: 0.25; stroke-width: 0.5; stroke-linecap: square"/>
     </g>
     <g id="line2d_2">
      <defs>
       <path id="m6454a43dae" d="M 0 0 
L 0 3.5 
" style="stroke: #000000; stroke-width: 0.8"/>
      </defs>
      <g>
       <use xlink:href="#m6454a43dae" x="72.169457" y="188.14" style="stroke: #000000; stroke-width: 0.8"/>
      </g>
     </g>
     <g id="text_1">
      <!-- $\mathdefault{2^{7}}$ -->
      <g transform="translate(67.409457 201.598672) scale(0.085 -0.085)">
       <defs>
        <path id="DejaVuSerif-32" d="M 819 3553 
L 469 3553 
L 469 4384 
Q 803 4563 1142 4656 
Q 1481 4750 1806 4750 
Q 2534 4750 2956 4397 
Q 3378 4044 3378 3438 
Q 3378 2753 2422 1800 
Q 2347 1728 2309 1691 
L 1131 513 
L 3078 513 
L 3078 1088 
L 3444 1088 
L 3444 0 
L 434 0 
L 434 341 
L 1850 1753 
Q 2319 2222 2519 2614 
Q 2719 3006 2719 3438 
Q 2719 3909 2473 4175 
Q 2228 4441 1797 4441 
Q 1350 4441 1106 4219 
Q 863 3997 819 3553 
z
" transform="scale(0.015625)"/>
        <path id="DejaVuSerif-37" d="M 3609 4347 
L 1784 0 
L 1319 0 
L 3059 4153 
L 903 4153 
L 903 3578 
L 538 3578 
L 538 4666 
L 3609 4666 
L 3609 4347 
z
" transform="scale(0.015625)"/>
       </defs>
       <use xlink:href="#DejaVuSerif-32" transform="translate(0 0.63125)"/>
       <use xlink:href="#DejaVuSerif-37" transform="translate(64.531406 36.965625) scale(0.7)"/>
      </g>
     </g>
    </g>
    <g id="xtick_2">
     <g id="line2d_3">
      <path d="M 99.053428 188.14 
L 99.053428 55.48 
" clip-path="url(#p9fb9251359)" style="fill: none; stroke: #b0b0b0; stroke-opacity: 0.25; stroke-width: 0.5; stroke-linecap: square"/>
     </g>
     <g id="line2d_4">
      <g>
       <use xlink:href="#m6454a43dae" x="99.053428" y="188.14" style="stroke: #000000; stroke-width: 0.8"/>
      </g>
     </g>
     <g id="text_2">
      <!-- $\mathdefault{2^{8}}$ -->
      <g transform="translate(94.293428 201.598672) scale(0.085 -0.085)">
       <defs>
        <path id="DejaVuSerif-38" d="M 2981 1275 
Q 2981 1775 2732 2051 
Q 2484 2328 2034 2328 
Q 1584 2328 1336 2051 
Q 1088 1775 1088 1275 
Q 1088 772 1336 495 
Q 1584 219 2034 219 
Q 2484 219 2732 495 
Q 2981 772 2981 1275 
z
M 2853 3541 
Q 2853 3966 2637 4203 
Q 2422 4441 2034 4441 
Q 1650 4441 1433 4203 
Q 1216 3966 1216 3541 
Q 1216 3113 1433 2875 
Q 1650 2638 2034 2638 
Q 2422 2638 2637 2875 
Q 2853 3113 2853 3541 
z
M 2516 2484 
Q 3047 2413 3344 2092 
Q 3641 1772 3641 1275 
Q 3641 619 3225 264 
Q 2809 -91 2034 -91 
Q 1263 -91 845 264 
Q 428 619 428 1275 
Q 428 1772 725 2092 
Q 1022 2413 1556 2484 
Q 1084 2569 832 2842 
Q 581 3116 581 3541 
Q 581 4103 968 4426 
Q 1356 4750 2034 4750 
Q 2713 4750 3100 4426 
Q 3488 4103 3488 3541 
Q 3488 3116 3236 2842 
Q 2984 2569 2516 2484 
z
" transform="scale(0.015625)"/>
       </defs>
       <use xlink:href="#DejaVuSerif-32" transform="translate(0 0.7125)"/>
       <use xlink:href="#DejaVuSerif-38" transform="translate(64.531406 37.046875) scale(0.7)"/>
      </g>
     </g>
    </g>
    <g id="xtick_3">
     <g id="line2d_5">
      <path d="M 125.9374 188.14 
L 125.9374 55.48 
" clip-path="url(#p9fb9251359)" style="fill: none; stroke: #b0b0b0; stroke-opacity: 0.25; stroke-width: 0.5; stroke-linecap: square"/>
     </g>
     <g id="line2d_6">
      <g>
       <use xlink:href="#m6454a43dae" x="125.9374" y="188.14" style="stroke: #000000; stroke-width: 0.8"/>
      </g>
     </g>
     <g id="text_3">
      <!-- $\mathdefault{2^{9}}$ -->
      <g transform="translate(121.1774 201.598672) scale(0.085 -0.085)">
       <defs>
        <path id="DejaVuSerif-39" d="M 2994 2091 
Q 2784 1856 2512 1740 
Q 2241 1625 1900 1625 
Q 1206 1625 804 2044 
Q 403 2463 403 3188 
Q 403 3897 839 4323 
Q 1275 4750 2003 4750 
Q 2794 4750 3217 4161 
Q 3641 3572 3641 2478 
Q 3641 1253 3137 581 
Q 2634 -91 1722 -91 
Q 1475 -91 1203 -44 
Q 931 3 647 97 
L 647 872 
L 997 872 
Q 1038 556 1241 387 
Q 1444 219 1784 219 
Q 2391 219 2687 676 
Q 2984 1134 2994 2091 
z
M 1978 4441 
Q 1534 4441 1298 4117 
Q 1063 3794 1063 3188 
Q 1063 2581 1298 2256 
Q 1534 1931 1978 1931 
Q 2422 1931 2658 2245 
Q 2894 2559 2894 3150 
Q 2894 3772 2656 4106 
Q 2419 4441 1978 4441 
z
" transform="scale(0.015625)"/>
       </defs>
       <use xlink:href="#DejaVuSerif-32" transform="translate(0 0.7125)"/>
       <use xlink:href="#DejaVuSerif-39" transform="translate(64.531406 37.046875) scale(0.7)"/>
      </g>
     </g>
    </g>
    <g id="xtick_4">
     <g id="line2d_7">
      <path d="M 152.821371 188.14 
L 152.821371 55.48 
" clip-path="url(#p9fb9251359)" style="fill: none; stroke: #b0b0b0; stroke-opacity: 0.25; stroke-width: 0.5; stroke-linecap: square"/>
     </g>
     <g id="line2d_8">
      <g>
       <use xlink:href="#m6454a43dae" x="152.821371" y="188.14" style="stroke: #000000; stroke-width: 0.8"/>
      </g>
     </g>
     <g id="text_4">
      <!-- $\mathdefault{2^{10}}$ -->
      <g transform="translate(146.148871 201.598672) scale(0.085 -0.085)">
       <defs>
        <path id="DejaVuSerif-31" d="M 909 0 
L 909 331 
L 1722 331 
L 1722 4213 
L 781 3603 
L 781 4013 
L 1919 4750 
L 2350 4750 
L 2350 331 
L 3163 331 
L 3163 0 
L 909 0 
z
" transform="scale(0.015625)"/>
        <path id="DejaVuSerif-30" d="M 2034 219 
Q 2513 219 2750 744 
Q 2988 1269 2988 2328 
Q 2988 3391 2750 3916 
Q 2513 4441 2034 4441 
Q 1556 4441 1318 3916 
Q 1081 3391 1081 2328 
Q 1081 1269 1318 744 
Q 1556 219 2034 219 
z
M 2034 -91 
Q 1275 -91 848 546 
Q 422 1184 422 2328 
Q 422 3475 848 4112 
Q 1275 4750 2034 4750 
Q 2797 4750 3222 4112 
Q 3647 3475 3647 2328 
Q 3647 1184 3222 546 
Q 2797 -91 2034 -91 
z
" transform="scale(0.015625)"/>
       </defs>
       <use xlink:href="#DejaVuSerif-32" transform="translate(0 0.7125)"/>
       <use xlink:href="#DejaVuSerif-31" transform="translate(64.531406 37.046875) scale(0.7)"/>
       <use xlink:href="#DejaVuSerif-30" transform="translate(109.067539 37.046875) scale(0.7)"/>
      </g>
     </g>
    </g>
    <g id="xtick_5">
     <g id="line2d_9">
      <path d="M 179.705342 188.14 
L 179.705342 55.48 
" clip-path="url(#p9fb9251359)" style="fill: none; stroke: #b0b0b0; stroke-opacity: 0.25; stroke-width: 0.5; stroke-linecap: square"/>
     </g>
     <g id="line2d_10">
      <g>
       <use xlink:href="#m6454a43dae" x="179.705342" y="188.14" style="stroke: #000000; stroke-width: 0.8"/>
      </g>
     </g>
     <g id="text_5">
      <!-- $\mathdefault{2^{11}}$ -->
      <g transform="translate(173.032842 201.598672) scale(0.085 -0.085)">
       <use xlink:href="#DejaVuSerif-32" transform="translate(0 0.7125)"/>
       <use xlink:href="#DejaVuSerif-31" transform="translate(64.531406 37.046875) scale(0.7)"/>
       <use xlink:href="#DejaVuSerif-31" transform="translate(109.067539 37.046875) scale(0.7)"/>
      </g>
     </g>
    </g>
    <g id="xtick_6">
     <g id="line2d_11">
      <path d="M 206.589313 188.14 
L 206.589313 55.48 
" clip-path="url(#p9fb9251359)" style="fill: none; stroke: #b0b0b0; stroke-opacity: 0.25; stroke-width: 0.5; stroke-linecap: square"/>
     </g>
     <g id="line2d_12">
      <g>
       <use xlink:href="#m6454a43dae" x="206.589313" y="188.14" style="stroke: #000000; stroke-width: 0.8"/>
      </g>
     </g>
     <g id="text_6">
      <!-- $\mathdefault{2^{12}}$ -->
      <g transform="translate(199.916813 201.598672) scale(0.085 -0.085)">
       <use xlink:href="#DejaVuSerif-32" transform="translate(0 0.7125)"/>
       <use xlink:href="#DejaVuSerif-31" transform="translate(64.531406 37.046875) scale(0.7)"/>
       <use xlink:href="#DejaVuSerif-32" transform="translate(109.067539 37.046875) scale(0.7)"/>
      </g>
     </g>
    </g>
    <g id="text_7">
     <!-- Number of anchors $N$ -->
     <g transform="translate(82.864605 214.584922) scale(0.095 -0.095)">
      <defs>
       <path id="DejaVuSerif-4e" d="M 313 0 
L 313 331 
L 941 331 
L 941 4331 
L 313 4331 
L 313 4666 
L 1509 4666 
L 4306 984 
L 4306 4331 
L 3681 4331 
L 3681 4666 
L 5319 4666 
L 5319 4331 
L 4691 4331 
L 4691 -91 
L 4313 -91 
L 1325 3841 
L 1325 331 
L 1953 331 
L 1953 0 
L 313 0 
z
" transform="scale(0.015625)"/>
       <path id="DejaVuSerif-75" d="M 2266 3322 
L 3341 3322 
L 3341 331 
L 3884 331 
L 3884 0 
L 2766 0 
L 2766 588 
Q 2606 256 2353 82 
Q 2100 -91 1766 -91 
Q 1213 -91 952 223 
Q 691 538 691 1209 
L 691 2988 
L 172 2988 
L 172 3322 
L 1269 3322 
L 1269 1388 
Q 1269 781 1417 556 
Q 1566 331 1947 331 
Q 2347 331 2556 625 
Q 2766 919 2766 1478 
L 2766 2988 
L 2266 2988 
L 2266 3322 
z
" transform="scale(0.015625)"/>
       <path id="DejaVuSerif-6d" d="M 3316 2675 
Q 3481 3041 3739 3227 
Q 3997 3413 4341 3413 
Q 4863 3413 5119 3089 
Q 5375 2766 5375 2113 
L 5375 331 
L 5894 331 
L 5894 0 
L 4300 0 
L 4300 331 
L 4800 331 
L 4800 2047 
Q 4800 2556 4650 2772 
Q 4500 2988 4153 2988 
Q 3769 2988 3567 2697 
Q 3366 2406 3366 1850 
L 3366 331 
L 3866 331 
L 3866 0 
L 2291 0 
L 2291 331 
L 2791 331 
L 2791 2069 
Q 2791 2566 2641 2777 
Q 2491 2988 2144 2988 
Q 1759 2988 1557 2697 
Q 1356 2406 1356 1850 
L 1356 331 
L 1856 331 
L 1856 0 
L 263 0 
L 263 331 
L 781 331 
L 781 2994 
L 231 2994 
L 231 3322 
L 1356 3322 
L 1356 2731 
Q 1516 3063 1762 3238 
Q 2009 3413 2322 3413 
Q 2709 3413 2968 3220 
Q 3228 3028 3316 2675 
z
" transform="scale(0.015625)"/>
       <path id="DejaVuSerif-62" d="M 738 331 
L 738 4531 
L 184 4531 
L 184 4863 
L 1313 4863 
L 1313 2803 
Q 1481 3116 1742 3264 
Q 2003 3413 2388 3413 
Q 3000 3413 3387 2928 
Q 3775 2444 3775 1663 
Q 3775 881 3387 395 
Q 3000 -91 2388 -91 
Q 2003 -91 1742 57 
Q 1481 206 1313 519 
L 1313 0 
L 184 0 
L 184 331 
L 738 331 
z
M 1313 1497 
Q 1313 897 1542 583 
Q 1772 269 2209 269 
Q 2650 269 2876 622 
Q 3103 975 3103 1663 
Q 3103 2353 2876 2703 
Q 2650 3053 2209 3053 
Q 1772 3053 1542 2737 
Q 1313 2422 1313 1825 
L 1313 1497 
z
" transform="scale(0.015625)"/>
       <path id="DejaVuSerif-65" d="M 3469 1600 
L 991 1600 
L 991 1575 
Q 991 903 1244 561 
Q 1497 219 1991 219 
Q 2369 219 2611 417 
Q 2853 616 2950 1006 
L 3413 1006 
Q 3275 459 2904 184 
Q 2534 -91 1931 -91 
Q 1203 -91 761 389 
Q 319 869 319 1663 
Q 319 2450 753 2931 
Q 1188 3413 1894 3413 
Q 2647 3413 3050 2948 
Q 3453 2484 3469 1600 
z
M 2791 1931 
Q 2772 2513 2545 2808 
Q 2319 3103 1894 3103 
Q 1497 3103 1269 2806 
Q 1041 2509 991 1931 
L 2791 1931 
z
" transform="scale(0.015625)"/>
       <path id="DejaVuSerif-72" d="M 3059 3328 
L 3059 2497 
L 2728 2497 
Q 2713 2744 2591 2866 
Q 2469 2988 2234 2988 
Q 1809 2988 1582 2694 
Q 1356 2400 1356 1850 
L 1356 331 
L 2022 331 
L 2022 0 
L 263 0 
L 263 331 
L 781 331 
L 781 2994 
L 231 2994 
L 231 3322 
L 1356 3322 
L 1356 2731 
Q 1525 3078 1790 3245 
Q 2056 3413 2438 3413 
Q 2578 3413 2733 3391 
Q 2888 3369 3059 3328 
z
" transform="scale(0.015625)"/>
       <path id="DejaVuSerif-20" transform="scale(0.015625)"/>
       <path id="DejaVuSerif-6f" d="M 1925 219 
Q 2388 219 2623 584 
Q 2859 950 2859 1663 
Q 2859 2375 2623 2739 
Q 2388 3103 1925 3103 
Q 1463 3103 1227 2739 
Q 991 2375 991 1663 
Q 991 950 1228 584 
Q 1466 219 1925 219 
z
M 1925 -91 
Q 1200 -91 759 389 
Q 319 869 319 1663 
Q 319 2456 758 2934 
Q 1197 3413 1925 3413 
Q 2653 3413 3092 2934 
Q 3531 2456 3531 1663 
Q 3531 869 3092 389 
Q 2653 -91 1925 -91 
z
" transform="scale(0.015625)"/>
       <path id="DejaVuSerif-66" d="M 2753 4078 
L 2450 4078 
Q 2447 4313 2317 4434 
Q 2188 4556 1941 4556 
Q 1619 4556 1487 4379 
Q 1356 4203 1356 3750 
L 1356 3322 
L 2284 3322 
L 2284 2988 
L 1356 2988 
L 1356 331 
L 2094 331 
L 2094 0 
L 231 0 
L 231 331 
L 781 331 
L 781 2988 
L 231 2988 
L 231 3322 
L 781 3322 
L 781 3738 
Q 781 4294 1070 4578 
Q 1359 4863 1919 4863 
Q 2128 4863 2337 4825 
Q 2547 4788 2753 4709 
L 2753 4078 
z
" transform="scale(0.015625)"/>
       <path id="DejaVuSerif-61" d="M 2547 1044 
L 2547 1747 
L 1806 1747 
Q 1378 1747 1168 1562 
Q 959 1378 959 997 
Q 959 650 1171 447 
Q 1384 244 1747 244 
Q 2106 244 2326 466 
Q 2547 688 2547 1044 
z
M 3122 2075 
L 3122 331 
L 3634 331 
L 3634 0 
L 2547 0 
L 2547 359 
Q 2356 128 2106 18 
Q 1856 -91 1522 -91 
Q 969 -91 644 203 
Q 319 497 319 997 
Q 319 1513 691 1797 
Q 1063 2081 1741 2081 
L 2547 2081 
L 2547 2309 
Q 2547 2688 2317 2895 
Q 2088 3103 1672 3103 
Q 1328 3103 1125 2947 
Q 922 2791 872 2484 
L 575 2484 
L 575 3156 
Q 875 3284 1158 3348 
Q 1441 3413 1709 3413 
Q 2400 3413 2761 3070 
Q 3122 2728 3122 2075 
z
" transform="scale(0.015625)"/>
       <path id="DejaVuSerif-6e" d="M 263 0 
L 263 331 
L 781 331 
L 781 2988 
L 231 2988 
L 231 3322 
L 1356 3322 
L 1356 2731 
Q 1516 3069 1770 3241 
Q 2025 3413 2363 3413 
Q 2913 3413 3172 3097 
Q 3431 2781 3431 2113 
L 3431 331 
L 3944 331 
L 3944 0 
L 2356 0 
L 2356 331 
L 2853 331 
L 2853 1931 
Q 2853 2541 2703 2767 
Q 2553 2994 2175 2994 
Q 1775 2994 1565 2701 
Q 1356 2409 1356 1850 
L 1356 331 
L 1856 331 
L 1856 0 
L 263 0 
z
" transform="scale(0.015625)"/>
       <path id="DejaVuSerif-63" d="M 3291 997 
Q 3169 466 2822 187 
Q 2475 -91 1925 -91 
Q 1200 -91 759 389 
Q 319 869 319 1663 
Q 319 2459 759 2936 
Q 1200 3413 1925 3413 
Q 2241 3413 2553 3339 
Q 2866 3266 3181 3116 
L 3181 2266 
L 2847 2266 
Q 2781 2703 2561 2903 
Q 2341 3103 1931 3103 
Q 1466 3103 1228 2742 
Q 991 2381 991 1663 
Q 991 944 1227 581 
Q 1463 219 1931 219 
Q 2303 219 2525 412 
Q 2747 606 2828 997 
L 3291 997 
z
" transform="scale(0.015625)"/>
       <path id="DejaVuSerif-68" d="M 263 0 
L 263 331 
L 781 331 
L 781 4531 
L 231 4531 
L 231 4863 
L 1356 4863 
L 1356 2731 
Q 1516 3069 1770 3241 
Q 2025 3413 2363 3413 
Q 2913 3413 3172 3097 
Q 3431 2781 3431 2113 
L 3431 331 
L 3944 331 
L 3944 0 
L 2356 0 
L 2356 331 
L 2853 331 
L 2853 1931 
Q 2853 2541 2704 2764 
Q 2556 2988 2175 2988 
Q 1775 2988 1565 2697 
Q 1356 2406 1356 1850 
L 1356 331 
L 1856 331 
L 1856 0 
L 263 0 
z
" transform="scale(0.015625)"/>
       <path id="DejaVuSerif-73" d="M 359 184 
L 359 959 
L 691 959 
Q 703 588 923 403 
Q 1144 219 1575 219 
Q 1963 219 2166 364 
Q 2369 509 2369 788 
Q 2369 1006 2220 1140 
Q 2072 1275 1594 1428 
L 1178 1569 
Q 750 1706 558 1912 
Q 366 2119 366 2438 
Q 366 2894 700 3153 
Q 1034 3413 1625 3413 
Q 1888 3413 2178 3344 
Q 2469 3275 2778 3144 
L 2778 2419 
L 2447 2419 
Q 2434 2741 2221 2922 
Q 2009 3103 1644 3103 
Q 1281 3103 1095 2975 
Q 909 2847 909 2591 
Q 909 2381 1050 2254 
Q 1191 2128 1613 1997 
L 2069 1856 
Q 2541 1709 2748 1489 
Q 2956 1269 2956 922 
Q 2956 450 2595 179 
Q 2234 -91 1600 -91 
Q 1278 -91 972 -22 
Q 666 47 359 184 
z
" transform="scale(0.015625)"/>
       <path id="DejaVuSans-Oblique-4e" d="M 1081 4666 
L 1931 4666 
L 3219 666 
L 4000 4666 
L 4616 4666 
L 3706 0 
L 2853 0 
L 1569 4025 
L 788 0 
L 172 0 
L 1081 4666 
z
" transform="scale(0.015625)"/>
      </defs>
      <use xlink:href="#DejaVuSerif-4e" transform="translate(0 0.015625)"/>
      <use xlink:href="#DejaVuSerif-75" transform="translate(87.5 0.015625)"/>
      <use xlink:href="#DejaVuSerif-6d" transform="translate(151.904297 0.015625)"/>
      <use xlink:href="#DejaVuSerif-62" transform="translate(246.728516 0.015625)"/>
      <use xlink:href="#DejaVuSerif-65" transform="translate(310.742188 0.015625)"/>
      <use xlink:href="#DejaVuSerif-72" transform="translate(369.921875 0.015625)"/>
      <use xlink:href="#DejaVuSerif-20" transform="translate(417.724609 0.015625)"/>
      <use xlink:href="#DejaVuSerif-6f" transform="translate(449.511719 0.015625)"/>
      <use xlink:href="#DejaVuSerif-66" transform="translate(509.716797 0.015625)"/>
      <use xlink:href="#DejaVuSerif-20" transform="translate(546.728516 0.015625)"/>
      <use xlink:href="#DejaVuSerif-61" transform="translate(578.515625 0.015625)"/>
      <use xlink:href="#DejaVuSerif-6e" transform="translate(638.134766 0.015625)"/>
      <use xlink:href="#DejaVuSerif-63" transform="translate(702.539062 0.015625)"/>
      <use xlink:href="#DejaVuSerif-68" transform="translate(758.544922 0.015625)"/>
      <use xlink:href="#DejaVuSerif-6f" transform="translate(822.949219 0.015625)"/>
      <use xlink:href="#DejaVuSerif-72" transform="translate(883.154297 0.015625)"/>
      <use xlink:href="#DejaVuSerif-73" transform="translate(930.957031 0.015625)"/>
      <use xlink:href="#DejaVuSerif-20" transform="translate(982.275391 0.015625)"/>
      <use xlink:href="#DejaVuSans-Oblique-4e" transform="translate(1014.0625 0.015625)"/>
     </g>
    </g>
   </g>
   <g id="matplotlib.axis_2">
    <g id="ytick_1">
     <g id="line2d_13">
      <path d="M 45.875 145.284747 
L 223.309211 145.284747 
" clip-path="url(#p9fb9251359)" style="fill: none; stroke: #b0b0b0; stroke-opacity: 0.25; stroke-width: 0.5; stroke-linecap: square"/>
     </g>
     <g id="line2d_14">
      <defs>
       <path id="m9e98d92b7d" d="M 0 0 
L -3.5 0 
" style="stroke: #000000; stroke-width: 0.8"/>
      </defs>
      <g>
       <use xlink:href="#m9e98d92b7d" x="45.875" y="145.284747" style="stroke: #000000; stroke-width: 0.8"/>
      </g>
     </g>
     <g id="text_8">
      <!-- $\mathdefault{10^{-1}}$ -->
      <g transform="translate(18.985 148.514083) scale(0.085 -0.085)">
       <defs>
        <path id="DejaVuSerif-2212" d="M 678 2259 
L 4684 2259 
L 4684 1753 
L 678 1753 
L 678 2259 
z
" transform="scale(0.015625)"/>
       </defs>
       <use xlink:href="#DejaVuSerif-31" transform="translate(0 0.7125)"/>
       <use xlink:href="#DejaVuSerif-30" transform="translate(63.623047 0.7125)"/>
       <use xlink:href="#DejaVuSerif-2212" transform="translate(128.154453 37.046875) scale(0.7)"/>
       <use xlink:href="#DejaVuSerif-31" transform="translate(186.806797 37.046875) scale(0.7)"/>
      </g>
     </g>
    </g>
    <g id="ytick_2">
     <g id="line2d_15">
      <path d="M 45.875 180.542264 
L 223.309211 180.542264 
" clip-path="url(#p9fb9251359)" style="fill: none; stroke: #b0b0b0; stroke-opacity: 0.25; stroke-width: 0.5; stroke-linecap: square"/>
     </g>
     <g id="line2d_16">
      <defs>
       <path id="me87f9fda47" d="M 0 0 
L -2 0 
" style="stroke: #000000; stroke-width: 0.6"/>
      </defs>
      <g>
       <use xlink:href="#me87f9fda47" x="45.875" y="180.542264" style="stroke: #000000; stroke-width: 0.6"/>
      </g>
     </g>
    </g>
    <g id="ytick_3">
     <g id="line2d_17">
      <path d="M 45.875 171.268324 
L 223.309211 171.268324 
" clip-path="url(#p9fb9251359)" style="fill: none; stroke: #b0b0b0; stroke-opacity: 0.25; stroke-width: 0.5; stroke-linecap: square"/>
     </g>
     <g id="line2d_18">
      <g>
       <use xlink:href="#me87f9fda47" x="45.875" y="171.268324" style="stroke: #000000; stroke-width: 0.6"/>
      </g>
     </g>
    </g>
    <g id="ytick_4">
     <g id="line2d_19">
      <path d="M 45.875 163.427319 
L 223.309211 163.427319 
" clip-path="url(#p9fb9251359)" style="fill: none; stroke: #b0b0b0; stroke-opacity: 0.25; stroke-width: 0.5; stroke-linecap: square"/>
     </g>
     <g id="line2d_20">
      <g>
       <use xlink:href="#me87f9fda47" x="45.875" y="163.427319" style="stroke: #000000; stroke-width: 0.6"/>
      </g>
     </g>
    </g>
    <g id="ytick_5">
     <g id="line2d_21">
      <path d="M 45.875 156.635132 
L 223.309211 156.635132 
" clip-path="url(#p9fb9251359)" style="fill: none; stroke: #b0b0b0; stroke-opacity: 0.25; stroke-width: 0.5; stroke-linecap: square"/>
     </g>
     <g id="line2d_22">
      <g>
       <use xlink:href="#me87f9fda47" x="45.875" y="156.635132" style="stroke: #000000; stroke-width: 0.6"/>
      </g>
     </g>
    </g>
    <g id="ytick_6">
     <g id="line2d_23">
      <path d="M 45.875 150.643999 
L 223.309211 150.643999 
" clip-path="url(#p9fb9251359)" style="fill: none; stroke: #b0b0b0; stroke-opacity: 0.25; stroke-width: 0.5; stroke-linecap: square"/>
     </g>
     <g id="line2d_24">
      <g>
       <use xlink:href="#me87f9fda47" x="45.875" y="150.643999" style="stroke: #000000; stroke-width: 0.6"/>
      </g>
     </g>
    </g>
    <g id="ytick_7">
     <g id="line2d_25">
      <path d="M 45.875 110.02723 
L 223.309211 110.02723 
" clip-path="url(#p9fb9251359)" style="fill: none; stroke: #b0b0b0; stroke-opacity: 0.25; stroke-width: 0.5; stroke-linecap: square"/>
     </g>
     <g id="line2d_26">
      <g>
       <use xlink:href="#me87f9fda47" x="45.875" y="110.02723" style="stroke: #000000; stroke-width: 0.6"/>
      </g>
     </g>
    </g>
    <g id="ytick_8">
     <g id="line2d_27">
      <path d="M 45.875 89.402904 
L 223.309211 89.402904 
" clip-path="url(#p9fb9251359)" style="fill: none; stroke: #b0b0b0; stroke-opacity: 0.25; stroke-width: 0.5; stroke-linecap: square"/>
     </g>
     <g id="line2d_28">
      <g>
       <use xlink:href="#me87f9fda47" x="45.875" y="89.402904" style="stroke: #000000; stroke-width: 0.6"/>
      </g>
     </g>
    </g>
    <g id="ytick_9">
     <g id="line2d_29">
      <path d="M 45.875 74.769713 
L 223.309211 74.769713 
" clip-path="url(#p9fb9251359)" style="fill: none; stroke: #b0b0b0; stroke-opacity: 0.25; stroke-width: 0.5; stroke-linecap: square"/>
     </g>
     <g id="line2d_30">
      <g>
       <use xlink:href="#me87f9fda47" x="45.875" y="74.769713" style="stroke: #000000; stroke-width: 0.6"/>
      </g>
     </g>
    </g>
    <g id="ytick_10">
     <g id="line2d_31">
      <path d="M 45.875 63.419327 
L 223.309211 63.419327 
" clip-path="url(#p9fb9251359)" style="fill: none; stroke: #b0b0b0; stroke-opacity: 0.25; stroke-width: 0.5; stroke-linecap: square"/>
     </g>
     <g id="line2d_32">
      <g>
       <use xlink:href="#me87f9fda47" x="45.875" y="63.419327" style="stroke: #000000; stroke-width: 0.6"/>
      </g>
     </g>
    </g>
    <g id="text_9">
     <!-- Operator error $\|\widehat M-M\|_{\mathrm{op}}$ -->
     <g transform="translate(12.04 182.325) rotate(-90) scale(0.095 -0.095)">
      <defs>
       <path id="DejaVuSerif-4f" d="M 2625 244 
Q 3391 244 3781 770 
Q 4172 1297 4172 2328 
Q 4172 3363 3781 3889 
Q 3391 4416 2625 4416 
Q 1856 4416 1465 3889 
Q 1075 3363 1075 2328 
Q 1075 1297 1465 770 
Q 1856 244 2625 244 
z
M 2625 -91 
Q 2150 -91 1751 65 
Q 1353 222 1050 525 
Q 700 875 529 1319 
Q 359 1763 359 2328 
Q 359 2894 529 3339 
Q 700 3784 1050 4134 
Q 1356 4441 1750 4595 
Q 2144 4750 2625 4750 
Q 3641 4750 4266 4084 
Q 4891 3419 4891 2328 
Q 4891 1769 4719 1320 
Q 4547 872 4197 525 
Q 3891 219 3497 64 
Q 3103 -91 2625 -91 
z
" transform="scale(0.015625)"/>
       <path id="DejaVuSerif-70" d="M 1313 1825 
L 1313 1497 
Q 1313 897 1542 583 
Q 1772 269 2209 269 
Q 2650 269 2876 622 
Q 3103 975 3103 1663 
Q 3103 2353 2876 2703 
Q 2650 3053 2209 3053 
Q 1772 3053 1542 2737 
Q 1313 2422 1313 1825 
z
M 738 2988 
L 184 2988 
L 184 3322 
L 1313 3322 
L 1313 2803 
Q 1481 3116 1742 3264 
Q 2003 3413 2388 3413 
Q 3000 3413 3387 2928 
Q 3775 2444 3775 1663 
Q 3775 881 3387 395 
Q 3000 -91 2388 -91 
Q 2003 -91 1742 57 
Q 1481 206 1313 519 
L 1313 -997 
L 1856 -997 
L 1856 -1331 
L 184 -1331 
L 184 -997 
L 738 -997 
L 738 2988 
z
" transform="scale(0.015625)"/>
       <path id="DejaVuSerif-74" d="M 691 2988 
L 184 2988 
L 184 3322 
L 691 3322 
L 691 4353 
L 1269 4353 
L 1269 3322 
L 2350 3322 
L 2350 2988 
L 1269 2988 
L 1269 878 
Q 1269 456 1350 337 
Q 1431 219 1650 219 
Q 1875 219 1978 351 
Q 2081 484 2088 781 
L 2522 781 
Q 2497 328 2275 118 
Q 2053 -91 1600 -91 
Q 1103 -91 897 129 
Q 691 350 691 878 
L 691 2988 
z
" transform="scale(0.015625)"/>
       <path id="DejaVuSans-2016" d="M 1344 4891 
L 1344 -1509 
L 813 -1509 
L 813 4891 
L 1344 4891 
z
M 2376 4891 
L 2376 -1509 
L 1845 -1509 
L 1845 4891 
L 2376 4891 
z
" transform="scale(0.015625)"/>
       <path id="STIXSizeTwoSym-Regular-302" d="M -1094 3610 
L -1728 3610 
L -4224 4538 
L -6726 3610 
L -7360 3610 
L -4378 4973 
L -4070 4973 
L -1094 3610 
z
" transform="scale(0.015625)"/>
       <path id="DejaVuSans-Oblique-4d" d="M 1081 4666 
L 2028 4666 
L 2572 1522 
L 4378 4666 
L 5350 4666 
L 4441 0 
L 3828 0 
L 4622 4091 
L 2791 897 
L 2175 897 
L 1581 4103 
L 788 0 
L 172 0 
L 1081 4666 
z
" transform="scale(0.015625)"/>
       <path id="DejaVuSans-2212" d="M 678 2272 
L 4684 2272 
L 4684 1741 
L 678 1741 
L 678 2272 
z
" transform="scale(0.015625)"/>
       <path id="DejaVuSans-6f" d="M 1959 3097 
Q 1497 3097 1228 2736 
Q 959 2375 959 1747 
Q 959 1119 1226 758 
Q 1494 397 1959 397 
Q 2419 397 2687 759 
Q 2956 1122 2956 1747 
Q 2956 2369 2687 2733 
Q 2419 3097 1959 3097 
z
M 1959 3584 
Q 2709 3584 3137 3096 
Q 3566 2609 3566 1747 
Q 3566 888 3137 398 
Q 2709 -91 1959 -91 
Q 1206 -91 779 398 
Q 353 888 353 1747 
Q 353 2609 779 3096 
Q 1206 3584 1959 3584 
z
" transform="scale(0.015625)"/>
       <path id="DejaVuSans-70" d="M 1159 525 
L 1159 -1331 
L 581 -1331 
L 581 3500 
L 1159 3500 
L 1159 2969 
Q 1341 3281 1617 3432 
Q 1894 3584 2278 3584 
Q 2916 3584 3314 3078 
Q 3713 2572 3713 1747 
Q 3713 922 3314 415 
Q 2916 -91 2278 -91 
Q 1894 -91 1617 61 
Q 1341 213 1159 525 
z
M 3116 1747 
Q 3116 2381 2855 2742 
Q 2594 3103 2138 3103 
Q 1681 3103 1420 2742 
Q 1159 2381 1159 1747 
Q 1159 1113 1420 752 
Q 1681 391 2138 391 
Q 2594 391 2855 752 
Q 3116 1113 3116 1747 
z
" transform="scale(0.015625)"/>
      </defs>
      <use xlink:href="#DejaVuSerif-4f" transform="translate(0 0.921875)"/>
      <use xlink:href="#DejaVuSerif-70" transform="translate(81.982422 0.921875)"/>
      <use xlink:href="#DejaVuSerif-65" transform="translate(145.996094 0.921875)"/>
      <use xlink:href="#DejaVuSerif-72" transform="translate(205.175781 0.921875)"/>
      <use xlink:href="#DejaVuSerif-61" transform="translate(252.978516 0.921875)"/>
      <use xlink:href="#DejaVuSerif-74" transform="translate(312.597656 0.921875)"/>
      <use xlink:href="#DejaVuSerif-6f" transform="translate(352.783203 0.921875)"/>
      <use xlink:href="#DejaVuSerif-72" transform="translate(412.988281 0.921875)"/>
      <use xlink:href="#DejaVuSerif-20" transform="translate(460.791016 0.921875)"/>
      <use xlink:href="#DejaVuSerif-65" transform="translate(492.578125 0.921875)"/>
      <use xlink:href="#DejaVuSerif-72" transform="translate(551.757812 0.921875)"/>
      <use xlink:href="#DejaVuSerif-72" transform="translate(599.560547 0.921875)"/>
      <use xlink:href="#DejaVuSerif-6f" transform="translate(647.363281 0.921875)"/>
      <use xlink:href="#DejaVuSerif-72" transform="translate(707.568359 0.921875)"/>
      <use xlink:href="#DejaVuSerif-20" transform="translate(755.371094 0.921875)"/>
      <use xlink:href="#DejaVuSans-2016" transform="translate(787.158203 0.921875)"/>
      <use xlink:href="#STIXSizeTwoSym-Regular-302" transform="translate(942.400391 39.515625) scale(0.826365)"/>
      <use xlink:href="#DejaVuSans-Oblique-4d" transform="translate(837.158203 0.921875)"/>
      <use xlink:href="#DejaVuSans-2212" transform="translate(942.919922 0.921875)"/>
      <use xlink:href="#DejaVuSans-Oblique-4d" transform="translate(1046.191406 0.921875)"/>
      <use xlink:href="#DejaVuSans-2016" transform="translate(1132.470703 0.921875)"/>
      <use xlink:href="#DejaVuSans-6f" transform="translate(1183.427734 -15.484375) scale(0.7)"/>
      <use xlink:href="#DejaVuSans-70" transform="translate(1226.254883 -15.484375) scale(0.7)"/>
     </g>
    </g>
   </g>
   <g id="line2d_33">
    <path d="M 53.940191 65.523691 
L 80.824163 86.379978 
L 107.708134 108.344508 
L 134.592105 126.461073 
L 161.476077 138.984793 
L 188.360048 155.384812 
L 215.244019 179.091534 
" clip-path="url(#p9fb9251359)" style="fill: none; stroke: #d55e00; stroke-width: 1.35; stroke-linecap: square"/>
    <defs>
     <path id="mde5870fb47" d="M 0 2.1 
C 0.556927 2.1 1.091118 1.878731 1.484924 1.484924 
C 1.878731 1.091118 2.1 0.556927 2.1 0 
C 2.1 -0.556927 1.878731 -1.091118 1.484924 -1.484924 
C 1.091118 -1.878731 0.556927 -2.1 0 -2.1 
C -0.556927 -2.1 -1.091118 -1.878731 -1.484924 -1.484924 
C -1.878731 -1.091118 -2.1 -0.556927 -2.1 0 
C -2.1 0.556927 -1.878731 1.091118 -1.484924 1.484924 
C -1.091118 1.878731 -0.556927 2.1 0 2.1 
z
" style="stroke: #d55e00"/>
    </defs>
    <g clip-path="url(#p9fb9251359)">
     <use xlink:href="#mde5870fb47" x="53.940191" y="65.523691" style="fill: #d55e00; stroke: #d55e00"/>
     <use xlink:href="#mde5870fb47" x="80.824163" y="86.379978" style="fill: #d55e00; stroke: #d55e00"/>
     <use xlink:href="#mde5870fb47" x="107.708134" y="108.344508" style="fill: #d55e00; stroke: #d55e00"/>
     <use xlink:href="#mde5870fb47" x="134.592105" y="126.461073" style="fill: #d55e00; stroke: #d55e00"/>
     <use xlink:href="#mde5870fb47" x="161.476077" y="138.984793" style="fill: #d55e00; stroke: #d55e00"/>
     <use xlink:href="#mde5870fb47" x="188.360048" y="155.384812" style="fill: #d55e00; stroke: #d55e00"/>
     <use xlink:href="#mde5870fb47" x="215.244019" y="179.091534" style="fill: #d55e00; stroke: #d55e00"/>
    </g>
   </g>
   <g id="line2d_34">
    <path d="M 53.940191 85.377686 
L 80.824163 95.714354 
L 107.708134 116.731902 
L 134.592105 118.770923 
L 161.476077 122.492001 
L 188.360048 132.267576 
L 215.244019 136.592981 
" clip-path="url(#p9fb9251359)" style="fill: none; stroke: #0072b2; stroke-width: 1.35; stroke-linecap: square"/>
    <defs>
     <path id="m11504ffcbe" d="M -2.1 2.1 
L 2.1 2.1 
L 2.1 -2.1 
L -2.1 -2.1 
z
" style="stroke: #0072b2; stroke-linejoin: miter"/>
    </defs>
    <g clip-path="url(#p9fb9251359)">
     <use xlink:href="#m11504ffcbe" x="53.940191" y="85.377686" style="fill: #0072b2; stroke: #0072b2; stroke-linejoin: miter"/>
     <use xlink:href="#m11504ffcbe" x="80.824163" y="95.714354" style="fill: #0072b2; stroke: #0072b2; stroke-linejoin: miter"/>
     <use xlink:href="#m11504ffcbe" x="107.708134" y="116.731902" style="fill: #0072b2; stroke: #0072b2; stroke-linejoin: miter"/>
     <use xlink:href="#m11504ffcbe" x="134.592105" y="118.770923" style="fill: #0072b2; stroke: #0072b2; stroke-linejoin: miter"/>
     <use xlink:href="#m11504ffcbe" x="161.476077" y="122.492001" style="fill: #0072b2; stroke: #0072b2; stroke-linejoin: miter"/>
     <use xlink:href="#m11504ffcbe" x="188.360048" y="132.267576" style="fill: #0072b2; stroke: #0072b2; stroke-linejoin: miter"/>
     <use xlink:href="#m11504ffcbe" x="215.244019" y="136.592981" style="fill: #0072b2; stroke: #0072b2; stroke-linejoin: miter"/>
    </g>
   </g>
   <g id="line2d_35">
    <path d="M 53.940191 86.437577 
L 80.824163 102.647969 
L 107.708134 119.958478 
L 134.592105 126.226789 
L 161.476077 132.652493 
L 188.360048 137.708119 
L 215.244019 144.135541 
" clip-path="url(#p9fb9251359)" style="fill: none; stroke: #009e73; stroke-width: 1.35; stroke-linecap: square"/>
    <defs>
     <path id="m7e0adf0862" d="M 0 -2.1 
L -2.1 2.1 
L 2.1 2.1 
z
" style="stroke: #009e73; stroke-linejoin: miter"/>
    </defs>
    <g clip-path="url(#p9fb9251359)">
     <use xlink:href="#m7e0adf0862" x="53.940191" y="86.437577" style="fill: #009e73; stroke: #009e73; stroke-linejoin: miter"/>
     <use xlink:href="#m7e0adf0862" x="80.824163" y="102.647969" style="fill: #009e73; stroke: #009e73; stroke-linejoin: miter"/>
     <use xlink:href="#m7e0adf0862" x="107.708134" y="119.958478" style="fill: #009e73; stroke: #009e73; stroke-linejoin: miter"/>
     <use xlink:href="#m7e0adf0862" x="134.592105" y="126.226789" style="fill: #009e73; stroke: #009e73; stroke-linejoin: miter"/>
     <use xlink:href="#m7e0adf0862" x="161.476077" y="132.652493" style="fill: #009e73; stroke: #009e73; stroke-linejoin: miter"/>
     <use xlink:href="#m7e0adf0862" x="188.360048" y="137.708119" style="fill: #009e73; stroke: #009e73; stroke-linejoin: miter"/>
     <use xlink:href="#m7e0adf0862" x="215.244019" y="144.135541" style="fill: #009e73; stroke: #009e73; stroke-linejoin: miter"/>
    </g>
   </g>
   <g id="patch_3">
    <path d="M 45.875 188.14 
L 45.875 55.48 
" style="fill: none; stroke: #000000; stroke-width: 0.7; stroke-linejoin: miter; stroke-linecap: square"/>
   </g>
   <g id="patch_4">
    <path d="M 223.309211 188.14 
L 223.309211 55.48 
" style="fill: none; stroke: #000000; stroke-width: 0.7; stroke-linejoin: miter; stroke-linecap: square"/>
   </g>
   <g id="patch_5">
    <path d="M 45.875 188.14 
L 223.309211 188.14 
" style="fill: none; stroke: #000000; stroke-width: 0.7; stroke-linejoin: miter; stroke-linecap: square"/>
   </g>
   <g id="patch_6">
    <path d="M 45.875 55.48 
L 223.309211 55.48 
" style="fill: none; stroke: #000000; stroke-width: 0.7; stroke-linejoin: miter; stroke-linecap: square"/>
   </g>
   <g id="text_10">
    <!-- a -->
    <g transform="translate(21.034211 56.065516) scale(0.095 -0.095)">
     <defs>
      <path id="DejaVuSerif-Bold-61" d="M 3525 2041 
L 3525 378 
L 4000 378 
L 4000 0 
L 2419 0 
L 2419 422 
Q 2200 159 1931 34 
Q 1663 -91 1319 -91 
Q 809 -91 536 182 
Q 263 456 263 966 
Q 263 1525 655 1803 
Q 1047 2081 1838 2081 
L 2419 2081 
L 2419 2278 
Q 2419 2681 2228 2873 
Q 2038 3066 1638 3066 
Q 1306 3066 1126 2930 
Q 947 2794 872 2484 
L 519 2484 
L 519 3200 
Q 816 3306 1134 3359 
Q 1453 3413 1806 3413 
Q 2697 3413 3111 3081 
Q 3525 2750 3525 2041 
z
M 2419 1044 
L 2419 1709 
L 2003 1709 
Q 1694 1709 1528 1540 
Q 1363 1372 1363 1056 
Q 1363 741 1483 584 
Q 1603 428 1850 428 
Q 2106 428 2262 597 
Q 2419 766 2419 1044 
z
" transform="scale(0.015625)"/>
     </defs>
     <use xlink:href="#DejaVuSerif-Bold-61"/>
    </g>
   </g>
  </g>
  <g id="axes_2">
   <g id="patch_7">
    <path d="M 272.990789 188.14 
L 450.425 188.14 
L 450.425 55.48 
L 272.990789 55.48 
z
" style="fill: #ffffff"/>
   </g>
   <g id="FillBetweenPolyCollection_4">
    <defs>
     <path id="m773e3b78e2" d="M 281.055981 -157.210625 
L 281.055981 -151.684169 
L 307.939952 -135.350659 
L 334.823923 -118.13786 
L 361.707895 -107.56674 
L 388.591866 -93.265524 
L 415.475837 -78.437243 
L 442.359809 -65.129249 
L 442.359809 -68.294654 
L 442.359809 -68.294654 
L 415.475837 -82.34255 
L 388.591866 -97.417081 
L 361.707895 -112.242288 
L 334.823923 -121.64798 
L 307.939952 -140.066601 
L 281.055981 -157.210625 
z
"/>
    </defs>
    <g clip-path="url(#pf4bb576fe6)">
     <use xlink:href="#m773e3b78e2" x="0" y="218.720625" style="fill: #d55e00; fill-opacity: 0.13"/>
    </g>
   </g>
   <g id="FillBetweenPolyCollection_5">
    <defs>
     <path id="m39178181a6" d="M 281.055981 -129.335187 
L 281.055981 -124.42576 
L 307.939952 -106.385481 
L 334.823923 -96.258523 
L 361.707895 -79.763542 
L 388.591866 -68.150309 
L 415.475837 -53.040717 
L 442.359809 -37.923449 
L 442.359809 -42.122292 
L 442.359809 -42.122292 
L 415.475837 -56.058015 
L 388.591866 -71.973221 
L 361.707895 -82.46797 
L 334.823923 -99.66223 
L 307.939952 -109.806241 
L 281.055981 -129.335187 
z
"/>
    </defs>
    <g clip-path="url(#pf4bb576fe6)">
     <use xlink:href="#m39178181a6" x="0" y="218.720625" style="fill: #0072b2; fill-opacity: 0.13"/>
    </g>
   </g>
   <g id="FillBetweenPolyCollection_6">
    <defs>
     <path id="m7b18bac15f" d="M 281.055981 -126.966166 
L 281.055981 -123.389985 
L 307.939952 -105.633916 
L 334.823923 -94.744118 
L 361.707895 -77.49935 
L 388.591866 -65.763719 
L 415.475837 -52.620152 
L 442.359809 -36.610625 
L 442.359809 -39.586605 
L 442.359809 -39.586605 
L 415.475837 -55.745688 
L 388.591866 -69.205937 
L 361.707895 -80.841767 
L 334.823923 -99.093402 
L 307.939952 -110.659669 
L 281.055981 -126.966166 
z
"/>
    </defs>
    <g clip-path="url(#pf4bb576fe6)">
     <use xlink:href="#m7b18bac15f" x="0" y="218.720625" style="fill: #009e73; fill-opacity: 0.13"/>
    </g>
   </g>
   <g id="matplotlib.axis_3">
    <g id="xtick_7">
     <g id="line2d_36">
      <path d="M 299.285246 188.14 
L 299.285246 55.48 
" clip-path="url(#pf4bb576fe6)" style="fill: none; stroke: #b0b0b0; stroke-opacity: 0.25; stroke-width: 0.5; stroke-linecap: square"/>
     </g>
     <g id="line2d_37">
      <g>
       <use xlink:href="#m6454a43dae" x="299.285246" y="188.14" style="stroke: #000000; stroke-width: 0.8"/>
      </g>
     </g>
     <g id="text_11">
      <!-- $\mathdefault{2^{7}}$ -->
      <g transform="translate(294.525246 201.598672) scale(0.085 -0.085)">
       <use xlink:href="#DejaVuSerif-32" transform="translate(0 0.63125)"/>
       <use xlink:href="#DejaVuSerif-37" transform="translate(64.531406 36.965625) scale(0.7)"/>
      </g>
     </g>
    </g>
    <g id="xtick_8">
     <g id="line2d_38">
      <path d="M 326.169218 188.14 
L 326.169218 55.48 
" clip-path="url(#pf4bb576fe6)" style="fill: none; stroke: #b0b0b0; stroke-opacity: 0.25; stroke-width: 0.5; stroke-linecap: square"/>
     </g>
     <g id="line2d_39">
      <g>
       <use xlink:href="#m6454a43dae" x="326.169218" y="188.14" style="stroke: #000000; stroke-width: 0.8"/>
      </g>
     </g>
     <g id="text_12">
      <!-- $\mathdefault{2^{8}}$ -->
      <g transform="translate(321.409218 201.598672) scale(0.085 -0.085)">
       <use xlink:href="#DejaVuSerif-32" transform="translate(0 0.7125)"/>
       <use xlink:href="#DejaVuSerif-38" transform="translate(64.531406 37.046875) scale(0.7)"/>
      </g>
     </g>
    </g>
    <g id="xtick_9">
     <g id="line2d_40">
      <path d="M 353.053189 188.14 
L 353.053189 55.48 
" clip-path="url(#pf4bb576fe6)" style="fill: none; stroke: #b0b0b0; stroke-opacity: 0.25; stroke-width: 0.5; stroke-linecap: square"/>
     </g>
     <g id="line2d_41">
      <g>
       <use xlink:href="#m6454a43dae" x="353.053189" y="188.14" style="stroke: #000000; stroke-width: 0.8"/>
      </g>
     </g>
     <g id="text_13">
      <!-- $\mathdefault{2^{9}}$ -->
      <g transform="translate(348.293189 201.598672) scale(0.085 -0.085)">
       <use xlink:href="#DejaVuSerif-32" transform="translate(0 0.7125)"/>
       <use xlink:href="#DejaVuSerif-39" transform="translate(64.531406 37.046875) scale(0.7)"/>
      </g>
     </g>
    </g>
    <g id="xtick_10">
     <g id="line2d_42">
      <path d="M 379.93716 188.14 
L 379.93716 55.48 
" clip-path="url(#pf4bb576fe6)" style="fill: none; stroke: #b0b0b0; stroke-opacity: 0.25; stroke-width: 0.5; stroke-linecap: square"/>
     </g>
     <g id="line2d_43">
      <g>
       <use xlink:href="#m6454a43dae" x="379.93716" y="188.14" style="stroke: #000000; stroke-width: 0.8"/>
      </g>
     </g>
     <g id="text_14">
      <!-- $\mathdefault{2^{10}}$ -->
      <g transform="translate(373.26466 201.598672) scale(0.085 -0.085)">
       <use xlink:href="#DejaVuSerif-32" transform="translate(0 0.7125)"/>
       <use xlink:href="#DejaVuSerif-31" transform="translate(64.531406 37.046875) scale(0.7)"/>
       <use xlink:href="#DejaVuSerif-30" transform="translate(109.067539 37.046875) scale(0.7)"/>
      </g>
     </g>
    </g>
    <g id="xtick_11">
     <g id="line2d_44">
      <path d="M 406.821132 188.14 
L 406.821132 55.48 
" clip-path="url(#pf4bb576fe6)" style="fill: none; stroke: #b0b0b0; stroke-opacity: 0.25; stroke-width: 0.5; stroke-linecap: square"/>
     </g>
     <g id="line2d_45">
      <g>
       <use xlink:href="#m6454a43dae" x="406.821132" y="188.14" style="stroke: #000000; stroke-width: 0.8"/>
      </g>
     </g>
     <g id="text_15">
      <!-- $\mathdefault{2^{11}}$ -->
      <g transform="translate(400.148632 201.598672) scale(0.085 -0.085)">
       <use xlink:href="#DejaVuSerif-32" transform="translate(0 0.7125)"/>
       <use xlink:href="#DejaVuSerif-31" transform="translate(64.531406 37.046875) scale(0.7)"/>
       <use xlink:href="#DejaVuSerif-31" transform="translate(109.067539 37.046875) scale(0.7)"/>
      </g>
     </g>
    </g>
    <g id="xtick_12">
     <g id="line2d_46">
      <path d="M 433.705103 188.14 
L 433.705103 55.48 
" clip-path="url(#pf4bb576fe6)" style="fill: none; stroke: #b0b0b0; stroke-opacity: 0.25; stroke-width: 0.5; stroke-linecap: square"/>
     </g>
     <g id="line2d_47">
      <g>
       <use xlink:href="#m6454a43dae" x="433.705103" y="188.14" style="stroke: #000000; stroke-width: 0.8"/>
      </g>
     </g>
     <g id="text_16">
      <!-- $\mathdefault{2^{12}}$ -->
      <g transform="translate(427.032603 201.598672) scale(0.085 -0.085)">
       <use xlink:href="#DejaVuSerif-32" transform="translate(0 0.7125)"/>
       <use xlink:href="#DejaVuSerif-31" transform="translate(64.531406 37.046875) scale(0.7)"/>
       <use xlink:href="#DejaVuSerif-32" transform="translate(109.067539 37.046875) scale(0.7)"/>
      </g>
     </g>
    </g>
    <g id="text_17">
     <!-- Number of anchors $N$ -->
     <g transform="translate(309.980395 214.584922) scale(0.095 -0.095)">
      <use xlink:href="#DejaVuSerif-4e" transform="translate(0 0.015625)"/>
      <use xlink:href="#DejaVuSerif-75" transform="translate(87.5 0.015625)"/>
      <use xlink:href="#DejaVuSerif-6d" transform="translate(151.904297 0.015625)"/>
      <use xlink:href="#DejaVuSerif-62" transform="translate(246.728516 0.015625)"/>
      <use xlink:href="#DejaVuSerif-65" transform="translate(310.742188 0.015625)"/>
      <use xlink:href="#DejaVuSerif-72" transform="translate(369.921875 0.015625)"/>
      <use xlink:href="#DejaVuSerif-20" transform="translate(417.724609 0.015625)"/>
      <use xlink:href="#DejaVuSerif-6f" transform="translate(449.511719 0.015625)"/>
      <use xlink:href="#DejaVuSerif-66" transform="translate(509.716797 0.015625)"/>
      <use xlink:href="#DejaVuSerif-20" transform="translate(546.728516 0.015625)"/>
      <use xlink:href="#DejaVuSerif-61" transform="translate(578.515625 0.015625)"/>
      <use xlink:href="#DejaVuSerif-6e" transform="translate(638.134766 0.015625)"/>
      <use xlink:href="#DejaVuSerif-63" transform="translate(702.539062 0.015625)"/>
      <use xlink:href="#DejaVuSerif-68" transform="translate(758.544922 0.015625)"/>
      <use xlink:href="#DejaVuSerif-6f" transform="translate(822.949219 0.015625)"/>
      <use xlink:href="#DejaVuSerif-72" transform="translate(883.154297 0.015625)"/>
      <use xlink:href="#DejaVuSerif-73" transform="translate(930.957031 0.015625)"/>
      <use xlink:href="#DejaVuSerif-20" transform="translate(982.275391 0.015625)"/>
      <use xlink:href="#DejaVuSans-Oblique-4e" transform="translate(1014.0625 0.015625)"/>
     </g>
    </g>
   </g>
   <g id="matplotlib.axis_4">
    <g id="ytick_11">
     <g id="line2d_48">
      <path d="M 272.990789 122.227941 
L 450.425 122.227941 
" clip-path="url(#pf4bb576fe6)" style="fill: none; stroke: #b0b0b0; stroke-opacity: 0.25; stroke-width: 0.5; stroke-linecap: square"/>
     </g>
     <g id="line2d_49">
      <g>
       <use xlink:href="#m9e98d92b7d" x="272.990789" y="122.227941" style="stroke: #000000; stroke-width: 0.8"/>
      </g>
     </g>
     <g id="text_18">
      <!-- $\mathdefault{10^{-1}}$ -->
      <g transform="translate(246.100789 125.457276) scale(0.085 -0.085)">
       <use xlink:href="#DejaVuSerif-31" transform="translate(0 0.7125)"/>
       <use xlink:href="#DejaVuSerif-30" transform="translate(63.623047 0.7125)"/>
       <use xlink:href="#DejaVuSerif-2212" transform="translate(128.154453 37.046875) scale(0.7)"/>
       <use xlink:href="#DejaVuSerif-31" transform="translate(186.806797 37.046875) scale(0.7)"/>
      </g>
     </g>
    </g>
    <g id="ytick_12">
     <g id="line2d_50">
      <path d="M 272.990789 185.236458 
L 450.425 185.236458 
" clip-path="url(#pf4bb576fe6)" style="fill: none; stroke: #b0b0b0; stroke-opacity: 0.25; stroke-width: 0.5; stroke-linecap: square"/>
     </g>
     <g id="line2d_51">
      <g>
       <use xlink:href="#me87f9fda47" x="272.990789" y="185.236458" style="stroke: #000000; stroke-width: 0.6"/>
      </g>
     </g>
    </g>
    <g id="ytick_13">
     <g id="line2d_52">
      <path d="M 272.990789 169.362745 
L 450.425 169.362745 
" clip-path="url(#pf4bb576fe6)" style="fill: none; stroke: #b0b0b0; stroke-opacity: 0.25; stroke-width: 0.5; stroke-linecap: square"/>
     </g>
     <g id="line2d_53">
      <g>
       <use xlink:href="#me87f9fda47" x="272.990789" y="169.362745" style="stroke: #000000; stroke-width: 0.6"/>
      </g>
     </g>
    </g>
    <g id="ytick_14">
     <g id="line2d_54">
      <path d="M 272.990789 158.100167 
L 450.425 158.100167 
" clip-path="url(#pf4bb576fe6)" style="fill: none; stroke: #b0b0b0; stroke-opacity: 0.25; stroke-width: 0.5; stroke-linecap: square"/>
     </g>
     <g id="line2d_55">
      <g>
       <use xlink:href="#me87f9fda47" x="272.990789" y="158.100167" style="stroke: #000000; stroke-width: 0.6"/>
      </g>
     </g>
    </g>
    <g id="ytick_15">
     <g id="line2d_56">
      <path d="M 272.990789 149.364232 
L 450.425 149.364232 
" clip-path="url(#pf4bb576fe6)" style="fill: none; stroke: #b0b0b0; stroke-opacity: 0.25; stroke-width: 0.5; stroke-linecap: square"/>
     </g>
     <g id="line2d_57">
      <g>
       <use xlink:href="#me87f9fda47" x="272.990789" y="149.364232" style="stroke: #000000; stroke-width: 0.6"/>
      </g>
     </g>
    </g>
    <g id="ytick_16">
     <g id="line2d_58">
      <path d="M 272.990789 142.226454 
L 450.425 142.226454 
" clip-path="url(#pf4bb576fe6)" style="fill: none; stroke: #b0b0b0; stroke-opacity: 0.25; stroke-width: 0.5; stroke-linecap: square"/>
     </g>
     <g id="line2d_59">
      <g>
       <use xlink:href="#me87f9fda47" x="272.990789" y="142.226454" style="stroke: #000000; stroke-width: 0.6"/>
      </g>
     </g>
    </g>
    <g id="ytick_17">
     <g id="line2d_60">
      <path d="M 272.990789 136.191548 
L 450.425 136.191548 
" clip-path="url(#pf4bb576fe6)" style="fill: none; stroke: #b0b0b0; stroke-opacity: 0.25; stroke-width: 0.5; stroke-linecap: square"/>
     </g>
     <g id="line2d_61">
      <g>
       <use xlink:href="#me87f9fda47" x="272.990789" y="136.191548" style="stroke: #000000; stroke-width: 0.6"/>
      </g>
     </g>
    </g>
    <g id="ytick_18">
     <g id="line2d_62">
      <path d="M 272.990789 130.963875 
L 450.425 130.963875 
" clip-path="url(#pf4bb576fe6)" style="fill: none; stroke: #b0b0b0; stroke-opacity: 0.25; stroke-width: 0.5; stroke-linecap: square"/>
     </g>
     <g id="line2d_63">
      <g>
       <use xlink:href="#me87f9fda47" x="272.990789" y="130.963875" style="stroke: #000000; stroke-width: 0.6"/>
      </g>
     </g>
    </g>
    <g id="ytick_19">
     <g id="line2d_64">
      <path d="M 272.990789 126.352741 
L 450.425 126.352741 
" clip-path="url(#pf4bb576fe6)" style="fill: none; stroke: #b0b0b0; stroke-opacity: 0.25; stroke-width: 0.5; stroke-linecap: square"/>
     </g>
     <g id="line2d_65">
      <g>
       <use xlink:href="#me87f9fda47" x="272.990789" y="126.352741" style="stroke: #000000; stroke-width: 0.6"/>
      </g>
     </g>
    </g>
    <g id="ytick_20">
     <g id="line2d_66">
      <path d="M 272.990789 95.091649 
L 450.425 95.091649 
" clip-path="url(#pf4bb576fe6)" style="fill: none; stroke: #b0b0b0; stroke-opacity: 0.25; stroke-width: 0.5; stroke-linecap: square"/>
     </g>
     <g id="line2d_67">
      <g>
       <use xlink:href="#me87f9fda47" x="272.990789" y="95.091649" style="stroke: #000000; stroke-width: 0.6"/>
      </g>
     </g>
    </g>
    <g id="ytick_21">
     <g id="line2d_68">
      <path d="M 272.990789 79.217936 
L 450.425 79.217936 
" clip-path="url(#pf4bb576fe6)" style="fill: none; stroke: #b0b0b0; stroke-opacity: 0.25; stroke-width: 0.5; stroke-linecap: square"/>
     </g>
     <g id="line2d_69">
      <g>
       <use xlink:href="#me87f9fda47" x="272.990789" y="79.217936" style="stroke: #000000; stroke-width: 0.6"/>
      </g>
     </g>
    </g>
    <g id="ytick_22">
     <g id="line2d_70">
      <path d="M 272.990789 67.955358 
L 450.425 67.955358 
" clip-path="url(#pf4bb576fe6)" style="fill: none; stroke: #b0b0b0; stroke-opacity: 0.25; stroke-width: 0.5; stroke-linecap: square"/>
     </g>
     <g id="line2d_71">
      <g>
       <use xlink:href="#me87f9fda47" x="272.990789" y="67.955358" style="stroke: #000000; stroke-width: 0.6"/>
      </g>
     </g>
    </g>
    <g id="ytick_23">
     <g id="line2d_72">
      <path d="M 272.990789 59.219423 
L 450.425 59.219423 
" clip-path="url(#pf4bb576fe6)" style="fill: none; stroke: #b0b0b0; stroke-opacity: 0.25; stroke-width: 0.5; stroke-linecap: square"/>
     </g>
     <g id="line2d_73">
      <g>
       <use xlink:href="#me87f9fda47" x="272.990789" y="59.219423" style="stroke: #000000; stroke-width: 0.6"/>
      </g>
     </g>
    </g>
    <g id="text_19">
     <!-- Subspace error $\|\sin\Theta\|_{\mathrm{op}}$ -->
     <g transform="translate(239.155789 180.8525) rotate(-90) scale(0.095 -0.095)">
      <defs>
       <path id="DejaVuSerif-53" d="M 594 225 
L 594 1288 
L 953 1284 
Q 969 753 1261 498 
Q 1553 244 2150 244 
Q 2706 244 2998 464 
Q 3291 684 3291 1106 
Q 3291 1444 3114 1625 
Q 2938 1806 2369 1978 
L 1753 2163 
Q 1084 2366 811 2669 
Q 538 2972 538 3500 
Q 538 4094 959 4422 
Q 1381 4750 2144 4750 
Q 2469 4750 2856 4679 
Q 3244 4609 3681 4475 
L 3681 3481 
L 3328 3481 
Q 3275 3975 2998 4195 
Q 2722 4416 2156 4416 
Q 1663 4416 1405 4214 
Q 1147 4013 1147 3628 
Q 1147 3294 1340 3103 
Q 1534 2913 2163 2725 
L 2741 2553 
Q 3375 2363 3645 2067 
Q 3916 1772 3916 1275 
Q 3916 597 3481 253 
Q 3047 -91 2188 -91 
Q 1803 -91 1404 -12 
Q 1006 66 594 225 
z
" transform="scale(0.015625)"/>
       <path id="DejaVuSans-73" d="M 2834 3397 
L 2834 2853 
Q 2591 2978 2328 3040 
Q 2066 3103 1784 3103 
Q 1356 3103 1142 2972 
Q 928 2841 928 2578 
Q 928 2378 1081 2264 
Q 1234 2150 1697 2047 
L 1894 2003 
Q 2506 1872 2764 1633 
Q 3022 1394 3022 966 
Q 3022 478 2636 193 
Q 2250 -91 1575 -91 
Q 1294 -91 989 -36 
Q 684 19 347 128 
L 347 722 
Q 666 556 975 473 
Q 1284 391 1588 391 
Q 1994 391 2212 530 
Q 2431 669 2431 922 
Q 2431 1156 2273 1281 
Q 2116 1406 1581 1522 
L 1381 1569 
Q 847 1681 609 1914 
Q 372 2147 372 2553 
Q 372 3047 722 3315 
Q 1072 3584 1716 3584 
Q 2034 3584 2315 3537 
Q 2597 3491 2834 3397 
z
" transform="scale(0.015625)"/>
       <path id="DejaVuSans-69" d="M 603 3500 
L 1178 3500 
L 1178 0 
L 603 0 
L 603 3500 
z
M 603 4863 
L 1178 4863 
L 1178 4134 
L 603 4134 
L 603 4863 
z
" transform="scale(0.015625)"/>
       <path id="DejaVuSans-6e" d="M 3513 2113 
L 3513 0 
L 2938 0 
L 2938 2094 
Q 2938 2591 2744 2837 
Q 2550 3084 2163 3084 
Q 1697 3084 1428 2787 
Q 1159 2491 1159 1978 
L 1159 0 
L 581 0 
L 581 3500 
L 1159 3500 
L 1159 2956 
Q 1366 3272 1645 3428 
Q 1925 3584 2291 3584 
Q 2894 3584 3203 3211 
Q 3513 2838 3513 2113 
z
" transform="scale(0.015625)"/>
       <path id="DejaVuSans-398" d="M 1416 2750 
L 3622 2750 
L 3622 2219 
L 1416 2219 
L 1416 2750 
z
M 2522 4238 
Q 1834 4238 1431 3725 
Q 1025 3213 1025 2328 
Q 1025 1447 1429 934 
Q 1834 422 2522 422 
Q 3209 422 3613 934 
Q 4013 1447 4013 2328 
Q 4013 3213 3613 3725 
Q 3209 4238 2522 4238 
z
M 2522 4750 
Q 3503 4750 4090 4092 
Q 4678 3434 4678 2328 
Q 4678 1225 4091 569 
Q 3503 -91 2522 -91 
Q 1538 -91 950 566 
Q 359 1222 359 2328 
Q 359 3434 950 4094 
Q 1538 4750 2522 4750 
z
" transform="scale(0.015625)"/>
      </defs>
      <use xlink:href="#DejaVuSerif-53" transform="translate(0 0.578125)"/>
      <use xlink:href="#DejaVuSerif-75" transform="translate(68.505859 0.578125)"/>
      <use xlink:href="#DejaVuSerif-62" transform="translate(132.910156 0.578125)"/>
      <use xlink:href="#DejaVuSerif-73" transform="translate(196.923828 0.578125)"/>
      <use xlink:href="#DejaVuSerif-70" transform="translate(248.242188 0.578125)"/>
      <use xlink:href="#DejaVuSerif-61" transform="translate(312.255859 0.578125)"/>
      <use xlink:href="#DejaVuSerif-63" transform="translate(371.875 0.578125)"/>
      <use xlink:href="#DejaVuSerif-65" transform="translate(427.880859 0.578125)"/>
      <use xlink:href="#DejaVuSerif-20" transform="translate(487.060547 0.578125)"/>
      <use xlink:href="#DejaVuSerif-65" transform="translate(518.847656 0.578125)"/>
      <use xlink:href="#DejaVuSerif-72" transform="translate(578.027344 0.578125)"/>
      <use xlink:href="#DejaVuSerif-72" transform="translate(625.830078 0.578125)"/>
      <use xlink:href="#DejaVuSerif-6f" transform="translate(673.632812 0.578125)"/>
      <use xlink:href="#DejaVuSerif-72" transform="translate(733.837891 0.578125)"/>
      <use xlink:href="#DejaVuSerif-20" transform="translate(781.640625 0.578125)"/>
      <use xlink:href="#DejaVuSans-2016" transform="translate(813.427734 0.578125)"/>
      <use xlink:href="#DejaVuSans-73" transform="translate(863.427734 0.578125)"/>
      <use xlink:href="#DejaVuSans-69" transform="translate(915.527344 0.578125)"/>
      <use xlink:href="#DejaVuSans-6e" transform="translate(943.310547 0.578125)"/>
      <use xlink:href="#DejaVuSans-398" transform="translate(1022.925129 0.578125)"/>
      <use xlink:href="#DejaVuSans-2016" transform="translate(1101.636067 0.578125)"/>
      <use xlink:href="#DejaVuSans-6f" transform="translate(1152.593098 -15.828125) scale(0.7)"/>
      <use xlink:href="#DejaVuSans-70" transform="translate(1195.420247 -15.828125) scale(0.7)"/>
     </g>
    </g>
   </g>
   <g id="line2d_74">
    <path d="M 281.055981 64.175792 
L 307.939952 80.941028 
L 334.823923 98.788378 
L 361.707895 108.746353 
L 388.591866 123.324317 
L 415.475837 138.282053 
L 442.359809 151.97669 
" clip-path="url(#pf4bb576fe6)" style="fill: none; stroke: #d55e00; stroke-width: 1.35; stroke-linecap: square"/>
    <g clip-path="url(#pf4bb576fe6)">
     <use xlink:href="#mde5870fb47" x="281.055981" y="64.175792" style="fill: #d55e00; stroke: #d55e00"/>
     <use xlink:href="#mde5870fb47" x="307.939952" y="80.941028" style="fill: #d55e00; stroke: #d55e00"/>
     <use xlink:href="#mde5870fb47" x="334.823923" y="98.788378" style="fill: #d55e00; stroke: #d55e00"/>
     <use xlink:href="#mde5870fb47" x="361.707895" y="108.746353" style="fill: #d55e00; stroke: #d55e00"/>
     <use xlink:href="#mde5870fb47" x="388.591866" y="123.324317" style="fill: #d55e00; stroke: #d55e00"/>
     <use xlink:href="#mde5870fb47" x="415.475837" y="138.282053" style="fill: #d55e00; stroke: #d55e00"/>
     <use xlink:href="#mde5870fb47" x="442.359809" y="151.97669" style="fill: #d55e00; stroke: #d55e00"/>
    </g>
   </g>
   <g id="line2d_75">
    <path d="M 281.055981 91.763246 
L 307.939952 110.587414 
L 334.823923 120.72327 
L 361.707895 137.581521 
L 388.591866 148.612216 
L 415.475837 164.142197 
L 442.359809 178.64149 
" clip-path="url(#pf4bb576fe6)" style="fill: none; stroke: #0072b2; stroke-width: 1.35; stroke-linecap: square"/>
    <g clip-path="url(#pf4bb576fe6)">
     <use xlink:href="#m11504ffcbe" x="281.055981" y="91.763246" style="fill: #0072b2; stroke: #0072b2; stroke-linejoin: miter"/>
     <use xlink:href="#m11504ffcbe" x="307.939952" y="110.587414" style="fill: #0072b2; stroke: #0072b2; stroke-linejoin: miter"/>
     <use xlink:href="#m11504ffcbe" x="334.823923" y="120.72327" style="fill: #0072b2; stroke: #0072b2; stroke-linejoin: miter"/>
     <use xlink:href="#m11504ffcbe" x="361.707895" y="137.581521" style="fill: #0072b2; stroke: #0072b2; stroke-linejoin: miter"/>
     <use xlink:href="#m11504ffcbe" x="388.591866" y="148.612216" style="fill: #0072b2; stroke: #0072b2; stroke-linejoin: miter"/>
     <use xlink:href="#m11504ffcbe" x="415.475837" y="164.142197" style="fill: #0072b2; stroke: #0072b2; stroke-linejoin: miter"/>
     <use xlink:href="#m11504ffcbe" x="442.359809" y="178.64149" style="fill: #0072b2; stroke: #0072b2; stroke-linejoin: miter"/>
    </g>
   </g>
   <g id="line2d_76">
    <path d="M 281.055981 93.501729 
L 307.939952 110.493241 
L 334.823923 121.741498 
L 361.707895 139.514407 
L 388.591866 151.197977 
L 415.475837 164.506522 
L 442.359809 180.593739 
" clip-path="url(#pf4bb576fe6)" style="fill: none; stroke: #009e73; stroke-width: 1.35; stroke-linecap: square"/>
    <g clip-path="url(#pf4bb576fe6)">
     <use xlink:href="#m7e0adf0862" x="281.055981" y="93.501729" style="fill: #009e73; stroke: #009e73; stroke-linejoin: miter"/>
     <use xlink:href="#m7e0adf0862" x="307.939952" y="110.493241" style="fill: #009e73; stroke: #009e73; stroke-linejoin: miter"/>
     <use xlink:href="#m7e0adf0862" x="334.823923" y="121.741498" style="fill: #009e73; stroke: #009e73; stroke-linejoin: miter"/>
     <use xlink:href="#m7e0adf0862" x="361.707895" y="139.514407" style="fill: #009e73; stroke: #009e73; stroke-linejoin: miter"/>
     <use xlink:href="#m7e0adf0862" x="388.591866" y="151.197977" style="fill: #009e73; stroke: #009e73; stroke-linejoin: miter"/>
     <use xlink:href="#m7e0adf0862" x="415.475837" y="164.506522" style="fill: #009e73; stroke: #009e73; stroke-linejoin: miter"/>
     <use xlink:href="#m7e0adf0862" x="442.359809" y="180.593739" style="fill: #009e73; stroke: #009e73; stroke-linejoin: miter"/>
    </g>
   </g>
   <g id="patch_8">
    <path d="M 272.990789 188.14 
L 272.990789 55.48 
" style="fill: none; stroke: #000000; stroke-width: 0.7; stroke-linejoin: miter; stroke-linecap: square"/>
   </g>
   <g id="patch_9">
    <path d="M 450.425 188.14 
L 450.425 55.48 
" style="fill: none; stroke: #000000; stroke-width: 0.7; stroke-linejoin: miter; stroke-linecap: square"/>
   </g>
   <g id="patch_10">
    <path d="M 272.990789 188.14 
L 450.425 188.14 
" style="fill: none; stroke: #000000; stroke-width: 0.7; stroke-linejoin: miter; stroke-linecap: square"/>
   </g>
   <g id="patch_11">
    <path d="M 272.990789 55.48 
L 450.425 55.48 
" style="fill: none; stroke: #000000; stroke-width: 0.7; stroke-linejoin: miter; stroke-linecap: square"/>
   </g>
   <g id="text_20">
    <!-- b -->
    <g transform="translate(248.15 56.065516) scale(0.095 -0.095)">
     <defs>
      <path id="DejaVuSerif-Bold-62" d="M 622 378 
L 622 4488 
L 147 4488 
L 147 4863 
L 1728 4863 
L 1728 2900 
Q 1869 3159 2106 3286 
Q 2344 3413 2694 3413 
Q 3403 3413 3811 2945 
Q 4219 2478 4219 1663 
Q 4219 847 3811 378 
Q 3403 -91 2694 -91 
Q 2344 -91 2106 36 
Q 1869 163 1728 422 
L 1728 0 
L 147 0 
L 147 378 
L 622 378 
z
M 1728 1497 
Q 1728 916 1876 656 
Q 2025 397 2356 397 
Q 2697 397 2836 672 
Q 2975 947 2975 1663 
Q 2975 2378 2836 2651 
Q 2697 2925 2356 2925 
Q 2025 2925 1876 2665 
Q 1728 2406 1728 1825 
L 1728 1497 
z
" transform="scale(0.015625)"/>
     </defs>
     <use xlink:href="#DejaVuSerif-Bold-62"/>
    </g>
   </g>
  </g>
  <g id="legend_1">
   <g id="line2d_77">
    <path d="M 87.797031 8.800719 
L 95.997031 8.800719 
L 104.197031 8.800719 
" style="fill: none; stroke: #d55e00; stroke-width: 1.35; stroke-linecap: square"/>
    <g>
     <use xlink:href="#mde5870fb47" x="95.997031" y="8.800719" style="fill: #d55e00; stroke: #d55e00"/>
    </g>
   </g>
   <g id="text_21">
    <!-- Cross-fitted -->
    <g transform="translate(110.757031 11.670719) scale(0.082 -0.082)">
     <defs>
      <path id="DejaVuSerif-43" d="M 4513 1234 
Q 4306 581 3820 245 
Q 3334 -91 2591 -91 
Q 2134 -91 1743 65 
Q 1353 222 1050 525 
Q 700 875 529 1320 
Q 359 1766 359 2328 
Q 359 3416 987 4083 
Q 1616 4750 2644 4750 
Q 3025 4750 3456 4650 
Q 3888 4550 4384 4347 
L 4384 3272 
L 4031 3272 
Q 3916 3859 3567 4137 
Q 3219 4416 2591 4416 
Q 1844 4416 1459 3886 
Q 1075 3356 1075 2328 
Q 1075 1303 1459 773 
Q 1844 244 2591 244 
Q 3113 244 3450 492 
Q 3788 741 3938 1234 
L 4513 1234 
z
" transform="scale(0.015625)"/>
      <path id="DejaVuSerif-2d" d="M 281 1959 
L 1881 1959 
L 1881 1472 
L 281 1472 
L 281 1959 
z
" transform="scale(0.015625)"/>
      <path id="DejaVuSerif-69" d="M 622 4353 
Q 622 4497 726 4603 
Q 831 4709 978 4709 
Q 1122 4709 1226 4603 
Q 1331 4497 1331 4353 
Q 1331 4206 1228 4103 
Q 1125 4000 978 4000 
Q 831 4000 726 4103 
Q 622 4206 622 4353 
z
M 1356 331 
L 1900 331 
L 1900 0 
L 231 0 
L 231 331 
L 781 331 
L 781 2988 
L 231 2988 
L 231 3322 
L 1356 3322 
L 1356 331 
z
" transform="scale(0.015625)"/>
      <path id="DejaVuSerif-64" d="M 3359 331 
L 3909 331 
L 3909 0 
L 2784 0 
L 2784 519 
Q 2616 206 2355 57 
Q 2094 -91 1709 -91 
Q 1097 -91 708 395 
Q 319 881 319 1663 
Q 319 2444 706 2928 
Q 1094 3413 1709 3413 
Q 2094 3413 2355 3264 
Q 2616 3116 2784 2803 
L 2784 4531 
L 2241 4531 
L 2241 4863 
L 3359 4863 
L 3359 331 
z
M 2784 1497 
L 2784 1825 
Q 2784 2422 2554 2737 
Q 2325 3053 1888 3053 
Q 1444 3053 1217 2703 
Q 991 2353 991 1663 
Q 991 975 1217 622 
Q 1444 269 1888 269 
Q 2325 269 2554 583 
Q 2784 897 2784 1497 
z
" transform="scale(0.015625)"/>
     </defs>
     <use xlink:href="#DejaVuSerif-43"/>
     <use xlink:href="#DejaVuSerif-72" transform="translate(76.513672 0)"/>
     <use xlink:href="#DejaVuSerif-6f" transform="translate(124.316406 0)"/>
     <use xlink:href="#DejaVuSerif-73" transform="translate(184.521484 0)"/>
     <use xlink:href="#DejaVuSerif-73" transform="translate(235.839844 0)"/>
     <use xlink:href="#DejaVuSerif-2d" transform="translate(287.158203 0)"/>
     <use xlink:href="#DejaVuSerif-66" transform="translate(320.947266 0)"/>
     <use xlink:href="#DejaVuSerif-69" transform="translate(357.958984 0)"/>
     <use xlink:href="#DejaVuSerif-74" transform="translate(389.941406 0)"/>
     <use xlink:href="#DejaVuSerif-74" transform="translate(430.126953 0)"/>
     <use xlink:href="#DejaVuSerif-65" transform="translate(470.3125 0)"/>
     <use xlink:href="#DejaVuSerif-64" transform="translate(529.492188 0)"/>
    </g>
   </g>
   <g id="line2d_78">
    <path d="M 175.825313 8.800719 
L 184.025313 8.800719 
L 192.225313 8.800719 
" style="fill: none; stroke: #0072b2; stroke-width: 1.35; stroke-linecap: square"/>
    <g>
     <use xlink:href="#m11504ffcbe" x="184.025313" y="8.800719" style="fill: #0072b2; stroke: #0072b2; stroke-linejoin: miter"/>
    </g>
   </g>
   <g id="text_22">
    <!-- Self outer product -->
    <g transform="translate(198.785313 11.670719) scale(0.082 -0.082)">
     <defs>
      <path id="DejaVuSerif-6c" d="M 1313 331 
L 1856 331 
L 1856 0 
L 184 0 
L 184 331 
L 738 331 
L 738 4531 
L 184 4531 
L 184 4863 
L 1313 4863 
L 1313 331 
z
" transform="scale(0.015625)"/>
     </defs>
     <use xlink:href="#DejaVuSerif-53"/>
     <use xlink:href="#DejaVuSerif-65" transform="translate(68.505859 0)"/>
     <use xlink:href="#DejaVuSerif-6c" transform="translate(127.685547 0)"/>
     <use xlink:href="#DejaVuSerif-66" transform="translate(159.667969 0)"/>
     <use xlink:href="#DejaVuSerif-20" transform="translate(196.679688 0)"/>
     <use xlink:href="#DejaVuSerif-6f" transform="translate(228.466797 0)"/>
     <use xlink:href="#DejaVuSerif-75" transform="translate(288.671875 0)"/>
     <use xlink:href="#DejaVuSerif-74" transform="translate(353.076172 0)"/>
     <use xlink:href="#DejaVuSerif-65" transform="translate(393.261719 0)"/>
     <use xlink:href="#DejaVuSerif-72" transform="translate(452.441406 0)"/>
     <use xlink:href="#DejaVuSerif-20" transform="translate(500.244141 0)"/>
     <use xlink:href="#DejaVuSerif-70" transform="translate(532.03125 0)"/>
     <use xlink:href="#DejaVuSerif-72" transform="translate(596.044922 0)"/>
     <use xlink:href="#DejaVuSerif-6f" transform="translate(643.847656 0)"/>
     <use xlink:href="#DejaVuSerif-64" transform="translate(704.052734 0)"/>
     <use xlink:href="#DejaVuSerif-75" transform="translate(768.066406 0)"/>
     <use xlink:href="#DejaVuSerif-63" transform="translate(832.470703 0)"/>
     <use xlink:href="#DejaVuSerif-74" transform="translate(888.476562 0)"/>
    </g>
   </g>
   <g id="line2d_79">
    <path d="M 291.335125 8.800719 
L 299.535125 8.800719 
L 307.735125 8.800719 
" style="fill: none; stroke: #009e73; stroke-width: 1.35; stroke-linecap: square"/>
    <g>
     <use xlink:href="#m7e0adf0862" x="299.535125" y="8.800719" style="fill: #009e73; stroke: #009e73; stroke-linejoin: miter"/>
    </g>
   </g>
   <g id="text_23">
    <!-- Trace-corrected outer -->
    <g transform="translate(314.295125 11.670719) scale(0.082 -0.082)">
     <defs>
      <path id="DejaVuSerif-54" d="M 1222 0 
L 1222 331 
L 1819 331 
L 1819 4294 
L 447 4294 
L 447 3566 
L 63 3566 
L 63 4666 
L 4206 4666 
L 4206 3566 
L 3822 3566 
L 3822 4294 
L 2450 4294 
L 2450 331 
L 3047 331 
L 3047 0 
L 1222 0 
z
" transform="scale(0.015625)"/>
     </defs>
     <use xlink:href="#DejaVuSerif-54"/>
     <use xlink:href="#DejaVuSerif-72" transform="translate(66.699219 0)"/>
     <use xlink:href="#DejaVuSerif-61" transform="translate(114.501953 0)"/>
     <use xlink:href="#DejaVuSerif-63" transform="translate(174.121094 0)"/>
     <use xlink:href="#DejaVuSerif-65" transform="translate(230.126953 0)"/>
     <use xlink:href="#DejaVuSerif-2d" transform="translate(289.306641 0)"/>
     <use xlink:href="#DejaVuSerif-63" transform="translate(323.095703 0)"/>
     <use xlink:href="#DejaVuSerif-6f" transform="translate(379.101562 0)"/>
     <use xlink:href="#DejaVuSerif-72" transform="translate(439.306641 0)"/>
     <use xlink:href="#DejaVuSerif-72" transform="translate(487.109375 0)"/>
     <use xlink:href="#DejaVuSerif-65" transform="translate(534.912109 0)"/>
     <use xlink:href="#DejaVuSerif-63" transform="translate(594.091797 0)"/>
     <use xlink:href="#DejaVuSerif-74" transform="translate(650.097656 0)"/>
     <use xlink:href="#DejaVuSerif-65" transform="translate(690.283203 0)"/>
     <use xlink:href="#DejaVuSerif-64" transform="translate(749.462891 0)"/>
     <use xlink:href="#DejaVuSerif-20" transform="translate(813.476562 0)"/>
     <use xlink:href="#DejaVuSerif-6f" transform="translate(845.263672 0)"/>
     <use xlink:href="#DejaVuSerif-75" transform="translate(905.46875 0)"/>
     <use xlink:href="#DejaVuSerif-74" transform="translate(969.873047 0)"/>
     <use xlink:href="#DejaVuSerif-65" transform="translate(1010.058594 0)"/>
     <use xlink:href="#DejaVuSerif-72" transform="translate(1069.238281 0)"/>
    </g>
   </g>
  </g>
 </g>
 <defs>
  <clipPath id="p9fb9251359">
   <rect x="45.875" y="55.48" width="177.434211" height="132.66"/>
  </clipPath>
  <clipPath id="pf4bb576fe6">
   <rect x="272.990789" y="55.48" width="177.434211" height="132.66"/>
  </clipPath>
 </defs>
</svg>
